<?xml version="1.0" encoding="UTF-8" standalone="no"?>
<!-- Created with Inkscape (http://www.inkscape.org/) -->

<svg
   xmlns:dc="http://purl.org/dc/elements/1.1/"
   xmlns:cc="http://creativecommons.org/ns#"
   xmlns:rdf="http://www.w3.org/1999/02/22-rdf-syntax-ns#"
   xmlns:svg="http://www.w3.org/2000/svg"
   xmlns="http://www.w3.org/2000/svg"
   xmlns:xlink="http://www.w3.org/1999/xlink"
   xmlns:sodipodi="http://sodipodi.sourceforge.net/DTD/sodipodi-0.dtd"
   xmlns:inkscape="http://www.inkscape.org/namespaces/inkscape"
   id="svg3096"
   version="1.1"
   inkscape:version="0.48.4 r9939"
   width="70"
   height="103"
   sodipodi:docname="Joconde.png">
  <metadata
     id="metadata3102">
    <rdf:RDF>
      <cc:Work
         rdf:about="">
        <dc:format>image/svg+xml</dc:format>
        <dc:type
           rdf:resource="http://purl.org/dc/dcmitype/StillImage" />
        <dc:title></dc:title>
      </cc:Work>
    </rdf:RDF>
  </metadata>
  <defs
     id="defs3100" />
  <sodipodi:namedview
     pagecolor="#ffffff"
     bordercolor="#666666"
     borderopacity="1"
     objecttolerance="10"
     gridtolerance="10"
     guidetolerance="10"
     inkscape:pageopacity="0"
     inkscape:pageshadow="2"
     inkscape:window-width="640"
     inkscape:window-height="480"
     id="namedview3098"
     showgrid="false"
     inkscape:zoom="2.2912621"
     inkscape:cx="27.362288"
     inkscape:cy="51.5"
     inkscape:window-x="75"
     inkscape:window-y="34"
     inkscape:window-maximized="0"
     inkscape:current-layer="svg3096" />
  
  <g
     id="g3111">
    <path
       style="fill:#eacc4e"
       d="M 0,51.5 0,0 35,0 70,0 70,51.5 70,103 35,103 0,103 0,51.5 z"
       id="path3143"
       inkscape:connector-curvature="0" />
    <path
       style="fill:#e5b649"
       d="M 0,68 C 0,45.333333 0.35238095,33 1,33 1.55,33 2,32.325 2,31.5 2,30.675 1.55,30 1,30 0.37777778,30 0,24.333333 0,15 l 0,-15 35,0 35,0 0,51.5 0,51.5 -13.5,0 c -14.911301,0 -13.611479,0.65562 -13.878104,-7 -0.09537,-2.738463 -0.576099,-3.564895 -2.209401,-3.798257 -1.148128,-0.164041 -2.665729,0.398459 -3.372445,1.25 C 35.238672,95.62227 33.25478,95.3781 32.464649,92.88862 31.876232,91.034682 31.292031,90.857592 27.673387,91.436237 23.003495,92.182983 20.776333,93.869985 17.357748,99.25 L 14.974911,103 7.4874554,103 0,103 0,68 z M 37.770833,44.1875 c 0.461069,-1.383206 -3.378319,-1.631617 -4.218047,-0.27291 -0.597354,0.96654 1.298954,2.077207 2.884714,1.689577 0.515625,-0.126042 1.115625,-0.763542 1.333333,-1.416667 z M 27.735509,30.482059 c 2.528768,-1.261516 3.161774,-2.311422 3.747161,-6.21506 0.616357,-4.110165 0.428925,-4.920167 -1.499931,-6.482059 -4.889024,-3.958892 -12.044256,-1.183853 -11.912454,4.620048 0.11534,5.078978 2.050599,7.913799 6.526077,9.559577 0.053,0.01949 1.465615,-0.647638 3.139147,-1.482506 z"
       id="path3141"
       inkscape:connector-curvature="0" />
    <path
       style="fill:#d6ab47"
       d="M 0,68 C 0,45.333333 0.35238095,33 1,33 1.55,33 2,32.325 2,31.5 2,30.675 1.55,30 1,30 0.37777778,30 0,24.333333 0,15 l 0,-15 35,0 35,0 0,51.5 0,51.5 -11,0 c -7.375422,0 -11,-0.36476 -11,-1.10699 0,-0.60884 -0.61556,-0.87077 -1.367912,-0.58207 -1.066914,0.40941 -1.262877,-0.40695 -0.890572,-3.710031 0.390567,-3.465105 0.03334,-4.751124 -1.965113,-7.074468 -2.419631,-2.812988 -2.473598,-2.823984 -5.775494,-1.176781 -2.989498,1.491358 -3.569976,1.507493 -5.631791,0.15654 C 29.740869,87.784105 27,87.525696 27,89 c 0,0.55 -0.640474,1 -1.423275,1 -3.149939,0 -11.530396,9.52119 -10.782328,12.25 C 14.907479,102.6625 11.625,103 7.5,103 L 0,103 0,68 z m 26,-3 c 0,-0.55 -0.45,-1 -1,-1 -0.55,0 -1,0.45 -1,1 0,0.55 0.45,1 1,1 0.55,0 1,-0.45 1,-1 z M 40,43.803833 C 40,43.361725 38.2,43 36,43 c -4.278866,0 -4.333851,0.08075 -3.362434,4.937832 l 0.637567,3.187832 3.362433,-3.258999 C 38.486905,46.074216 40,44.245941 40,43.803833 z M 22.36326,48.48211 c 1.65253,2.25997 3.098434,0.482802 2.269086,-2.788945 -0.456099,-1.799293 -1.370959,-2.239758 -5.094143,-2.452603 -4.887312,-0.279396 -5.653215,0.807501 -3.458618,4.908144 1.032178,1.928643 1.164612,1.940274 3.015903,0.264878 1.846686,-1.671227 1.997953,-1.668055 3.267772,0.06853 z m 9.754774,-18.483814 c 0.986252,-0.0012 1.437627,-1.589985 1.576353,-5.548518 0.183706,-5.242026 0.01886,-5.656673 -3,-7.546109 -3.742981,-2.342646 -9.124349,-1.970149 -11.764397,0.814329 -0.961731,1.014344 -1.96051,4.259009 -2.318516,7.532002 -0.599685,5.482496 -0.523863,5.75148 1.62979,5.781803 1.242305,0.01749 3.120049,0.683575 4.172765,1.480184 1.696919,1.284089 2.277464,1.223766 5.118034,-0.531803 1.762203,-1.089101 3.82589,-1.980951 4.585971,-1.981888 z"
       id="path3139"
       inkscape:connector-curvature="0" />
    <path
       style="fill:#d09e39"
       d="M 0,69 C 0,50.053352 0.39018509,35 0.88128501,35 1.3659918,35 2.2863399,32.8625 2.926503,30.25 c 0.6401631,-2.6125 1.3989093,-5.5375 1.6861027,-6.5 0.8253089,-2.765941 -1.3934435,-2.03624 -3.0406308,1 -1.38483427,2.552648 -1.49477292,1.763239 -1.53193727,-11 L 0,0 35,0 70,0 70,51.5 70,103 59.106989,103 C 47.147148,103 47,102.92182 47,96.567436 c 0,-1.797944 -0.494021,-4.68614 -1.097825,-6.418213 -1.20787,-3.464897 -3.275128,-3.960977 -8.669617,-2.080449 -2.421325,0.844079 -3.714831,0.733193 -6.152611,-0.527432 -2.93099,-1.515674 -3.250524,-1.482321 -6.333335,0.661055 C 19.736239,91.685943 16,95.252693 16,96.552233 16,97.20016 15.067339,98.915969 13.92742,100.36514 12.104848,102.68217 11.139836,103 5.9274199,103 L 0,103 0,69 z m 27.092432,-3.5 c -0.0073,-0.55 -0.931035,-1.143798 -2.052821,-1.319551 -2.011176,-0.315096 -2.705733,0.820095 -1.338375,2.187454 0.972358,0.972358 3.407274,0.349194 3.391196,-0.867903 z M 21.979944,54.475834 c -0.69572,-0.838291 -1.470881,-1.31823 -1.72258,-1.066531 C 19.563866,54.1028 20.972907,56 22.181462,56 c 0.663093,0 0.587231,-0.573782 -0.201518,-1.524166 z M 37.786,48.818215 C 42.173042,43.110166 41.97326,42 36.559017,42 34.116476,42 31.909131,42.338013 31.653804,42.75114 30.758382,44.199963 32.271511,53 33.416053,53 34.051824,53 36.018301,51.118197 37.786,48.818215 z M 18.8,49.8 c 0.933333,-0.933333 1.466667,-0.933333 2.4,0 2.737531,2.737531 3.800574,1.312878 3.768197,-5.05 -0.02602,-5.112845 -0.253448,-5.96317 -1.25,-4.673533 -1.612173,2.08631 -5.794639,3.104981 -7.372356,1.795592 -1.85683,-1.541032 -3.532595,-0.04233 -2.752988,2.462098 C 15.764279,51.309703 16.508794,52.091206 18.8,49.8 z M 27.5,33 c 1.110445,-1.227028 3.079967,-2 5.095971,-2 3.853918,0 5.012488,-1.250135 2.834073,-3.058059 C 34.3112,27.013383 34.051032,25.657419 34.491496,23.050336 34.990411,20.097284 34.683849,19.064435 32.800442,17.35294 29.731615,14.56423 25.514252,13.675177 21.554134,14.982134 17.630981,16.276892 16.333649,18.689222 15.494365,26.25 l -0.638278,5.75 2.880827,0 c 1.584455,0 3.754335,0.660688 4.821956,1.468197 C 25.094481,35.386036 25.363758,35.36052 27.5,33 z"
       id="path3137"
       inkscape:connector-curvature="0" />
    <path
       style="fill:#989052"
       d="M 0,69.047717 C 0,50.073543 0.39016088,35 0.88128501,35 1.3659918,35 2.2863399,32.8625 2.926503,30.25 c 0.6401631,-2.6125 1.3989093,-5.5375 1.6861027,-6.5 0.8253089,-2.765941 -1.3934435,-2.03624 -3.0406308,1 -1.38483427,2.552648 -1.49477292,1.763239 -1.53193727,-11 L 0,0 35,0 70,0 70,51.534983 70,103.06997 59.75,102.78498 49.5,102.5 49.201168,95.001168 c -0.164358,-4.124358 -0.677059,-7.877059 -1.139336,-8.339336 -0.462277,-0.462277 -5.404672,-0.8321 -10.9831,-0.82183 -9.899126,0.01823 -10.254653,0.09916 -14.810722,3.371792 -2.920781,2.097999 -5.622605,5.21254 -7.218068,8.320662 L 12.5,102.5 6.25,102.79772 0,103.09543 0,69.047717 z M 27.738173,65.286882 C 27.960321,64.619667 26.985111,63.783383 25.571039,63.428474 24.156968,63.073564 23,62.156968 23,61.391592 23,60.626216 22.325,60 21.5,60 c -1.98942,0 -1.896849,0.633935 0.605798,4.148579 2.08329,2.925712 4.851023,3.48507 5.632375,1.138303 z M 22.035184,54.065741 c -1.426815,-2.666028 -1.345796,-2.882525 1.214816,-3.24619 2.114738,-0.300341 2.25,-0.790657 2.25,-8.156108 0,-7.028754 0.243353,-8.033798 2.360784,-9.75 C 29.374076,31.686902 31.776054,31 34.551767,31 39.809648,31 40.592173,30.022543 37.986375,26.709808 36.893869,25.320911 36,23.01802 36,21.592271 36,18.18498 32.968745,15.272364 28.56235,14.445719 20.965789,13.020596 15.125674,17.062001 14.821429,23.954545 14.430902,32.801752 14.353509,32.495373 17,32.578956 c 4.334818,0.136903 4.902888,0.371072 6.035888,2.488102 0.864109,1.614602 0.746473,2.616156 -0.537424,4.575631 -1.448939,2.21136 -2.108992,2.429959 -5.571072,1.845044 -4.374448,-0.739058 -4.600499,-0.321517 -2.947088,5.443592 C 15.056617,50.684209 19.594733,56 21.722275,56 c 1.022942,0 1.098413,-0.46653 0.312909,-1.934259 z M 37.048127,51.75 C 39.402963,49.257861 43,42.720475 43,40.932849 c 0,-0.718085 -0.654238,-0.859744 -1.75,-0.37892 -0.9625,0.422349 -3.627206,0.679838 -5.92157,0.572197 -5.104904,-0.239496 -6.158341,1.838075 -4.299102,8.478622 1.377177,4.918793 2.888926,5.457619 6.018799,2.145252 z"
       id="path3135"
       inkscape:connector-curvature="0" />
    <path
       style="fill:#b28839"
       d="M 0,72.047717 C 0,52.015906 0.35480566,41 1,41 1.55,41 2,40.072054 2,38.937897 2,35.448232 4.8433328,27.933488 10.384552,16.77807 L 15.686997,6.1033463 8.4719751,6.3016731 C 3.1717361,6.4473664 1.3839447,6.8317355 1.7354653,7.75 1.9986471,8.4375 1.7999203,9 1.2938502,9 0.78778015,9 0.26934822,6.9836465 0.14177927,4.5192146 L -0.09016428,0.0384291 34.917181,0.10523636 69.924526,0.17204363 69.875259,6.5912672 C 69.848162,10.12184 69.457389,12.782682 69.006876,12.504249 68.556362,12.225817 68.394801,11.206281 68.647852,10.238614 68.975232,8.9867097 68.227038,8.1467148 66.053972,7.3264739 64.374287,6.6924638 63,5.4596394 63,4.5868641 63,2.3582653 59.663957,2.6088542 57.5,5 c -1.641328,1.8136468 -1.66554,2.163059 -0.259854,3.75 0.852567,0.9625 3.158155,4.670899 5.123529,8.240886 2.315293,4.205595 4.200617,6.494094 5.354866,6.5 1.673883,0.0086 1.798397,2.411615 2.061955,39.794434 L 70.060992,103.07064 59.780496,102.78532 49.5,102.5 49.201168,95.001168 c -0.164358,-4.124358 -0.677059,-7.877059 -1.139336,-8.339336 -0.462277,-0.462277 -5.404672,-0.8321 -10.9831,-0.82183 -9.899126,0.01823 -10.254653,0.09916 -14.810722,3.371792 -2.920781,2.097999 -5.622605,5.21254 -7.218068,8.320662 L 12.5,102.5 6.25,102.79772 0,103.09543 0,72.047717 z M 27.738173,65.286882 C 27.960321,64.619667 26.985111,63.783383 25.571039,63.428474 24.156968,63.073564 23,62.156968 23,61.391592 23,60.626216 22.325,60 21.5,60 c -1.98942,0 -1.896849,0.633935 0.605798,4.148579 2.08329,2.925712 4.851023,3.48507 5.632375,1.138303 z M 22.035184,54.065741 c -1.426815,-2.666028 -1.345796,-2.882525 1.214816,-3.24619 2.114738,-0.300341 2.25,-0.790657 2.25,-8.156108 0,-7.028754 0.243353,-8.033798 2.360784,-9.75 C 29.374076,31.686902 31.776054,31 34.551767,31 39.809648,31 40.592173,30.022543 37.986375,26.709808 36.893869,25.320911 36,23.213436 36,22.026529 36,18.522857 34.23836,16.23377 30.624006,15.040926 26.847525,13.794575 20,13.937969 20,15.263404 20,15.73345 19.632567,15.890948 19.183483,15.613399 17.577304,14.620725 15.19542,20.605608 14.850797,26.5 14.511116,32.309869 14.579221,32.502502 17,32.578956 c 4.334818,0.136903 4.902888,0.371072 6.035888,2.488102 0.864109,1.614602 0.746473,2.616156 -0.537424,4.575631 -1.448939,2.21136 -2.108992,2.429959 -5.571072,1.845044 -4.374448,-0.739058 -4.600499,-0.321517 -2.947088,5.443592 C 15.056617,50.684209 19.594733,56 21.722275,56 c 1.022942,0 1.098413,-0.46653 0.312909,-1.934259 z M 37.048127,51.75 C 39.402963,49.257861 43,42.720475 43,40.932849 c 0,-0.718085 -0.654238,-0.859744 -1.75,-0.37892 -0.9625,0.422349 -3.627206,0.679838 -5.92157,0.572197 -5.104904,-0.239496 -6.158341,1.838075 -4.299102,8.478622 1.377177,4.918793 2.888926,5.457619 6.018799,2.145252 z"
       id="path3133"
       inkscape:connector-curvature="0" />
    <path
       style="fill:#877c47"
       d="M 0,72 C 0,52 0.35483871,41 1,41 1.55,41 2,40.072054 2,38.937897 2,35.448232 4.8433328,27.933488 10.384552,16.77807 L 15.686997,6.1033463 8.4719751,6.3016731 C 3.1717361,6.4473664 1.3839447,6.8317355 1.7354653,7.75 1.9986471,8.4375 1.7999203,9 1.2938502,9 0.78778015,9 0.26934822,6.9836465 0.14177927,4.5192146 L -0.09016428,0.0384291 34.917181,0.10523636 69.924526,0.17204363 69.875259,6.5912672 C 69.848162,10.12184 69.457389,12.782682 69.006876,12.504249 68.556362,12.225817 68.394801,11.206281 68.647852,10.238614 68.975232,8.9867097 68.227038,8.1467148 66.053972,7.3264739 64.374287,6.6924638 63,5.4596394 63,4.5868641 63,2.3582653 59.663957,2.6088542 57.5,5 c -1.641328,1.8136468 -1.66554,2.163059 -0.259854,3.75 0.852567,0.9625 3.158155,4.670899 5.123529,8.240886 2.315293,4.205595 4.200617,6.494094 5.354866,6.5 1.673884,0.0086 1.798397,2.411668 2.061958,39.795694 l 0.280499,39.78658 -9.780499,-0.28658 L 50.5,102.5 50.85602,94.695891 C 51.322785,84.464182 49.966963,82.633907 42.552252,83.486321 39.773514,83.805772 36.170074,83.687526 34.544609,83.223554 29.055048,81.656614 17.404752,89.204895 14.91659,95.940638 12.850434,101.53396 10.751335,103 4.8088704,103 L 0,103 0,72 z m 28.8,-5.2 c 1.775586,-1.775586 1.475063,-2.744923 -1.161824,-3.747466 -1.704502,-0.64805 -2.684649,-2.180014 -3.521763,-5.504496 -1.117634,-4.438526 -1.058849,-4.694929 1.611825,-7.030302 C 28.25451,48.308634 28.61071,48.239584 29.75,49.738112 30.4375,50.642393 31,52.196251 31,53.19113 31,54.278519 31.731238,55 32.833333,55 c 2.517689,0 3.359736,1.062439 2.071901,2.614186 -1.209716,1.457618 -0.277804,3.734109 1.163864,2.843109 C 36.581094,60.140864 37,58.941052 37,57.791046 c 0,-1.150006 1.8,-5.212978 4,-9.028827 2.2,-3.815848 4,-7.573377 4,-8.350063 0,-1.677146 -2.345154,-1.832986 -5.132799,-0.341084 -1.524171,0.815712 -2.57298,0.696504 -4.399075,-0.5 -3.16413,-2.073217 -3.198039,-2.063534 -5.388797,1.538879 -1.818977,2.991068 -1.933095,3.031807 -2.985301,1.065741 C 24.041834,36.472616 27.48087,32 34.918213,32 43.212138,32 45.447829,29.833899 40.5,26.591957 38.982689,25.597777 38,24.010425 38,22.553672 38,21.23355 36.855773,18.793614 35.457273,17.131591 32.027591,13.055645 25.682794,12.014329 20.299682,14.643906 15.650829,16.914809 14.242277,19.71075 13.822981,27.5 l -0.322981,6 3.805669,0.03106 c 5.193623,0.04238 7.507417,3.719324 4.11313,6.536333 -1.253152,1.040024 -1.98407,1.060685 -3.523032,0.09959 C 15.937423,38.943972 12,40.070419 12,41.853683 12,44.71608 15.399158,53.138653 17.445447,55.346636 18.797928,56.805986 19.475989,58 18.952251,58 17.14536,58 18.009438,60.555762 21.072804,64.272156 24.229358,68.101603 26.692586,68.907414 28.8,66.8 z"
       id="path3131"
       inkscape:connector-curvature="0" />
    <path
       style="fill:#947032"
       d="M 0.01531277,71.75 C 0.02464792,52.699017 0.38408604,41.058545 0.93607884,41.930814 1.5985639,42.977685 2.0195593,42.306838 2.5049738,39.430814 4.351482,28.490471 12.417581,11.662345 18.409959,6.2485913 c 2.248935,-2.031777 3.936709,-4.357192 3.750609,-5.1675887 -0.251842,-1.09668154 0.004,-1.20684971 1.000535,-0.43084215 C 23.939475,1.2562832 29.588477,1.6524164 36.654585,1.5963835 43.339607,1.5433726 48.600549,1.8375 48.345568,2.25 48.090587,2.6625 48.368578,3 48.963326,3 c 2.41818,0 9.927958,8.375337 13.082585,14.590452 1.850894,3.646555 4.060248,6.885152 4.909676,7.196882 0.849427,0.311731 1.875022,1.049607 2.2791,1.639724 0.404078,0.590118 0.741578,18.025525 0.75,38.745349 L 70,102.84481 60.25,102.67241 50.5,102.5 50.85602,94.695891 C 51.322785,84.464182 49.966963,82.633907 42.552252,83.486321 39.773514,83.805772 36.170074,83.687526 34.544609,83.223554 29.055048,81.656614 17.404752,89.204895 14.91659,95.940638 12.850434,101.53396 10.751335,103 4.8088704,103 L 0,103 0.01531277,71.75 z M 31.264432,81.402234 C 32.065547,80.601119 31.017051,78 29.893011,78 29.401855,78 29,78.9 29,80 c 0,1.949186 1.060669,2.605998 2.264432,1.402234 z M 28.8,66.8 c 1.775586,-1.775586 1.475063,-2.744923 -1.161824,-3.747466 -1.704502,-0.64805 -2.684649,-2.180014 -3.521763,-5.504496 -1.117634,-4.438526 -1.058849,-4.694929 1.611825,-7.030302 C 28.25451,48.308634 28.61071,48.239584 29.75,49.738112 30.4375,50.642393 31,52.196251 31,53.19113 31,54.278519 31.731238,55 32.833333,55 c 2.517689,0 3.359736,1.062439 2.071901,2.614186 -1.209716,1.457618 -0.277804,3.734109 1.163864,2.843109 C 36.581094,60.140864 37,58.941052 37,57.791046 c 0,-1.150006 1.760449,-5.144377 3.912108,-8.876381 6.327287,-10.974531 6.320534,-12.637689 -0.03797,-9.349582 -2.746193,1.420112 -3.247794,1.420112 -5.415157,0 -3.15394,-2.06654 -3.189668,-2.05628 -5.379657,1.544868 -1.818977,2.991068 -1.933095,3.031807 -2.985301,1.065741 C 24.041834,36.472616 27.48087,32 34.918213,32 43.212138,32 45.447829,29.833899 40.5,26.591957 38.954226,25.579127 38,24.014489 38,22.492724 c 0,-1.353644 -1.313195,-3.93077 -2.91821,-5.726947 -2.748709,-3.076087 -3.29735,-3.26159 -9.445636,-3.193697 -5.641274,0.06229 -6.801841,0.401689 -8.548777,2.5 C 14.884237,18.718354 14.00856,22.060426 13.700053,29 L 13.5,33.5 l 3.805669,0.03106 c 5.193623,0.04238 7.507417,3.719324 4.11313,6.536333 -1.253152,1.040024 -1.98407,1.060685 -3.523032,0.09959 C 15.937423,38.943972 12,40.070419 12,41.853683 12,44.71608 15.399158,53.138653 17.445447,55.346636 18.797928,56.805986 19.475989,58 18.952251,58 17.14536,58 18.009438,60.555762 21.072804,64.272156 24.229358,68.101603 26.692586,68.907414 28.8,66.8 z M 0.07894737,3.4166667 C 0.12693129,2.2517237 0.36388767,2.0147673 0.68311404,2.8125 0.97198465,3.534375 0.93645833,4.396875 0.60416667,4.7291667 0.271875,5.0614583 0.03552632,4.4708333 0.07894737,3.4166667 z"
       id="path3129"
       inkscape:connector-curvature="0" />
    <path
       style="fill:#737147"
       d="M 0.01531277,71.75 C 0.02464792,52.699017 0.38408604,41.058545 0.93607884,41.930814 1.5985639,42.977685 2.0195593,42.306838 2.5049738,39.430814 4.351482,28.490471 12.417581,11.662345 18.409959,6.2485913 c 2.248935,-2.031777 3.936709,-4.357192 3.750609,-5.1675887 -0.251842,-1.09668154 0.004,-1.20684971 1.000535,-0.43084215 C 23.939475,1.2562832 29.588477,1.6524164 36.654585,1.5963835 43.339607,1.5433726 48.600549,1.8375 48.345568,2.25 48.090587,2.6625 48.368578,3 48.963326,3 c 2.41818,0 9.927958,8.375337 13.082585,14.590452 1.850894,3.646555 4.060248,6.885152 4.909676,7.196882 0.849427,0.311731 1.875022,1.049607 2.2791,1.639724 0.404078,0.590118 0.741578,18.024878 0.75,38.743912 L 70,102.84194 60.84593,102.67097 51.69186,102.5 51.908134,94.300487 C 52.22143,82.422563 49.888753,79.22559 42.311969,81.148782 38.877894,82.020443 37.645586,81.859839 34.172451,80.087978 29.163645,77.532676 29,77.527546 29,79.925824 c 0,1.231203 -2.254299,3.496421 -6.25,6.280274 -4.761612,3.317473 -6.903331,5.643556 -8.993452,9.767629 -1.508899,2.977248 -3.262416,5.888623 -3.8967049,6.469723 C 9.0302985,103.20344 8.9046808,103.14914 9.4123126,102.25 9.8004594,101.5625 9.6414763,101 9.059017,101 8.4765576,101 8,101.45 8,102 c 0,0.55 -1.8,1 -4,1 L 0,103 0.01531277,71.75 z M 32.241851,65.68959 C 38.116159,61.273016 40,59.04804 40,56.526559 c 0,-1.410393 1.35,-5.094193 3,-8.186223 1.65,-3.09203 3,-6.725754 3,-8.074942 0,-2.356507 -0.189743,-2.426973 -4.8202,-1.790123 -3.84891,0.529361 -5.100704,0.32496 -6.212253,-1.014374 -1.20836,-1.455985 -1.140886,-1.86098 0.511329,-3.06911 C 36.525737,33.626304 38.556251,33 39.99113,33 c 4.848306,0 6.768837,-4.419789 2.955382,-6.801331 -1.129419,-0.705334 -2.900998,-3.259584 -3.936843,-5.676111 -1.035844,-2.416528 -2.924275,-5.047175 -4.196511,-5.845882 -3.338198,-2.095711 -8.80577,-2.82598 -12.730623,-1.700347 -5.695443,1.633432 -7.805312,4.451435 -9.105881,12.162083 C 11.604914,33.271008 12.409094,35 17.563428,35 c 3.801814,0 5.159397,1.424122 3.389983,3.556136 -0.876968,1.056682 -1.575405,1.172545 -2.490436,0.413136 C 17.763557,38.388807 16.023263,38.207041 14.595653,38.565349 12.446363,39.104786 12,39.794043 12,42.573461 c 0,1.846154 0.625635,5.284871 1.390301,7.641592 0.764665,2.356721 1.655503,5.409947 1.97964,6.784947 0.324136,1.375 2.461662,4.670431 4.750057,7.32318 4.627492,5.364272 6.520624,5.577671 12.121853,1.36641 z M 25.944406,57.891027 C 24.325614,54.717932 24.135946,53.541122 25.063244,52.423795 27.019162,50.067058 30,50.652275 30,53.393011 c 0,1.316156 0.685191,2.655944 1.522647,2.977306 1.262676,0.484534 1.309033,0.926344 0.271512,2.587679 -2.157441,3.454612 -3.685172,3.175961 -5.849753,-1.066969 z m 1.57073,-17.866536 c -1.184627,-1.916767 0.368795,-5.852877 2.587851,-6.557178 3.487088,-1.106758 3.898429,0.835892 0.924047,4.364014 -1.816473,2.154643 -3.056936,2.929307 -3.511898,2.193164 z M 0.07894737,3.4166667 C 0.12693129,2.2517237 0.36388767,2.0147673 0.68311404,2.8125 0.97198465,3.534375 0.93645833,4.396875 0.60416667,4.7291667 0.271875,5.0614583 0.03552632,4.4708333 0.07894737,3.4166667 z"
       id="path3127"
       inkscape:connector-curvature="0" />
    <path
       style="fill:#6d552a"
       d="M 0.09975274,88.029173 C 0.20185238,79.795218 0.67117604,73.296776 1.1426942,73.58819 1.6142124,73.879604 2,72.966476 2,71.559017 2,70.151558 1.5927407,69 1.0949792,69 0.59721783,69 0.13227118,63.114205 0.06176447,55.920455 -0.01017314,48.580711 0.32084525,43.080259 0.81607107,43.386326 2.0542607,44.151569 3.7620659,40.252199 4.3054871,35.419068 4.8531516,30.548197 12.597226,13.802095 16.371093,9.3279087 20.635374,4.2723038 26.707117,1.8680382 35.295352,1.8343539 48.65616,1.7819508 56.212445,6.8185842 62.304681,19.837392 c 1.655475,3.53767 3.797557,6.638089 4.760183,6.889821 2.273075,0.594423 2.904784,3.176082 2.921481,11.939454 0.0092,4.808592 -0.397637,7.332626 -1.236345,7.671052 -0.981845,0.396183 -0.976024,0.521322 0.02713,0.583334 1.005781,0.06217 1.259135,5.978165 1.192427,27.84398 l -0.0847,27.765037 -9.092106,-0.015 -9.092106,-0.015 0.211882,-8.199513 C 52.220809,82.370363 49.895285,79.223932 42.211048,81.174399 38.490636,82.11874 37.60398,81.957961 33.603621,79.613594 31.150753,78.176117 28.886492,77 28.57193,77 28.257369,77 28,78.266536 28,79.814524 c 0,2.301591 -1.047909,3.534625 -5.75,6.765804 -4.303155,2.957038 -6.440322,5.317013 -8.493452,9.378928 -1.508899,2.985207 -3.262416,5.903094 -3.8967049,6.484194 C 9.0302985,103.20344 8.9046808,103.14914 9.4123126,102.25 10.244522,100.77596 8.4051163,100.53549 7.5,102 c -0.3399187,0.55 -2.1858,1 -4.1019585,1 l -3.48392446,0 0.1856357,-14.970827 z M 32.241851,65.68959 C 38.088052,61.294148 40,59.044234 40,56.560072 40,55.168111 41.346288,51.435156 42.991751,48.264617 44.637214,45.094078 46.099714,41.375 46.241751,40 46.517081,37.334648 46.016709,37.228214 39.443118,38.553855 37.235354,38.999077 35.995862,38.69994 34.980865,37.476943 33.755241,36.000158 33.818937,35.605565 35.478876,34.391787 36.525737,33.626304 38.556251,33 39.99113,33 c 4.848306,0 6.768837,-4.419789 2.955382,-6.801331 -1.129419,-0.705334 -2.900998,-3.259584 -3.936843,-5.676111 -1.035844,-2.416528 -2.924275,-5.047175 -4.196511,-5.845882 -3.338198,-2.095711 -8.80577,-2.82598 -12.730623,-1.700347 -5.695443,1.633432 -7.805312,4.451435 -9.105881,12.162083 C 11.604914,33.271008 12.409094,35 17.563428,35 c 3.801814,0 5.159397,1.424122 3.389983,3.556136 -0.876968,1.056682 -1.575405,1.172545 -2.490436,0.413136 C 17.763557,38.388807 16.023263,38.207041 14.595653,38.565349 12.446363,39.104786 12,39.794043 12,42.573461 c 0,1.846154 0.625635,5.284871 1.390301,7.641592 0.764665,2.356721 1.655503,5.409947 1.97964,6.784947 0.324136,1.375 2.461662,4.670431 4.750057,7.32318 4.627492,5.364272 6.520624,5.577671 12.121853,1.36641 z M 25.944406,57.891027 C 24.325614,54.717932 24.135946,53.541122 25.063244,52.423795 27.019162,50.067058 30,50.652275 30,53.393011 c 0,1.316156 0.685191,2.655944 1.522647,2.977306 1.262676,0.484534 1.309033,0.926344 0.271512,2.587679 -2.157441,3.454612 -3.685172,3.175961 -5.849753,-1.066969 z m 1.57073,-17.866536 c -1.184627,-1.916767 0.368795,-5.852877 2.587851,-6.557178 3.487088,-1.106758 3.898429,0.835892 0.924047,4.364014 -1.816473,2.154643 -3.056936,2.929307 -3.511898,2.193164 z"
       id="path3125"
       inkscape:connector-curvature="0" />
    <path
       style="fill:#50492b"
       d="M 0.12535618,88.5 C 0.26888476,80.525 0.74939586,74 1.1931586,74 1.6369214,74 2,72.875 2,71.5 2,70.125 1.5947761,69 1.0995024,69 0.60422879,69 0.1390194,63.540521 0.06570381,56.867824 -0.05678543,45.719669 0.09736088,44.620107 1.9662014,43.31112 3.0847906,42.52763 4,40.844549 4,39.570941 4,35.445921 8.9986882,21.80358 12.718085,15.77768 19.524237,4.7508419 25.828798,1.3746513 38,2.2388214 49.488832,3.0545423 56.284796,8.2084876 62.843857,21.079985 c 2.079601,4.081008 4.152668,7.26908 4.606815,7.084605 1.696224,-0.689011 2.519149,2.559178 2.534015,10.002077 0.01041,5.209867 -0.385252,7.828298 -1.234687,8.171052 -1,0.403509 -1,0.520176 0,0.583334 0.966932,0.06107 1.25,6.146238 1.25,26.871542 l 0,26.792595 -4.514351,1.20741 C 59.913606,103.28289 53,103.36506 53,101.94098 c 0,-0.58246 0.5625,-0.72108 1.25,-0.30804 0.971118,0.58343 0.989146,0.42813 0.08081,-0.69608 -0.701027,-0.86763 -1.052862,-4.047724 -0.87867,-7.941956 C 53.900559,82.96998 49.094168,75.273684 44.065741,77.964816 41.195984,79.500664 36.999156,79.168131 32.518855,77.049907 27.822949,74.829748 27,75.127815 27,79.048802 c 0,2.432027 -0.907571,3.533362 -5.333179,6.471801 -3.227941,2.143232 -6.264319,5.206527 -7.692026,7.760214 C 10.383508,99.704423 6.6652705,103 3.0091206,103 l -3.14472548,0 0.26096106,-14.5 z M 35.123802,65.697453 C 40.284367,62.349002 43,58.507497 43,54.55587 c 0,-1.44955 0.845083,-4.305119 1.877963,-6.345708 2.427587,-4.796017 3.348627,-9.352483 2.239081,-11.076928 -0.718361,-1.116468 -1.549678,-1.145556 -4.539467,-0.158837 -2.013033,0.664361 -4.367182,0.936581 -5.231443,0.604933 C 34.900441,36.640829 37.633902,34 41.051016,34 44.067853,34 47,31.746825 47,29.428571 47,28.642857 45.9875,27.006724 44.75,25.79272 43.5125,24.578716 41.6,21.776971 40.5,19.566618 36.791593,12.114903 26.809656,9.3641059 18.52229,13.510057 15.257694,15.143248 14.311053,16.306749 13.241979,20 c -2.145768,7.412827 -2.068861,13.673934 0.188242,15.32488 1.890753,1.382981 1.885641,1.435708 -0.25,2.578669 -2.715964,1.453539 -2.759755,4.241091 -0.216791,13.799884 2.403504,9.034572 3.001146,10.128399 8.002875,14.647161 4.740476,4.282735 6.688967,4.192843 14.157497,-0.653141 z M 25.495635,53.992937 c -0.34232,-0.553884 0.10053,-1.284477 0.984111,-1.623538 1.914649,-0.73472 2.981717,0.07492 2.061373,1.56407 -0.830379,1.343581 -2.234909,1.371006 -3.045484,0.05947 z"
       id="path3123"
       inkscape:connector-curvature="0" />
    <path
       style="fill:#3d432d"
       d="M 0,92.740547 C 0,83.5641 0.21112371,82.349245 2,81.232073 4.5453565,79.642471 4.5506351,76.435371 2.0235359,66.932371 0.93648069,62.844567 0.03648069,56.759732 0.02353593,53.410515 0.00213978,47.874659 0.22728889,47.21747 2.5,46.181954 4.3416678,45.342834 5,44.268502 5,42.102206 5,38.168939 7.7113382,27.788058 10.080582,22.650218 L 11.994398,18.5 11.406184,25.645679 c -0.362686,4.405947 -0.16887,7.92923 0.505506,9.189311 0.721817,1.348728 0.752765,2.254354 0.09101,2.663339 -1.462328,0.903768 -1.227551,7.260685 0.560592,15.178829 1.31349,5.816311 2.327239,7.75345 6.34407,12.122666 6.152776,6.692541 9.144943,6.904951 17.865964,1.268283 6.751872,-4.363945 8.219786,-6.3682 8.241223,-11.252366 C 45.022558,52.992084 45.738567,49.475 46.605685,47 47.472803,44.525 48.127802,41.15 48.06124,39.5 47.554772,26.945344 47.379979,25.750893 45.889441,24.65898 45.019291,24.021541 43.56367,22.060762 42.654727,20.301693 40.603877,16.332703 35.542733,12.440059 31.25,11.530051 29.431902,11.144636 28,10.215219 28,9.4205447 c 0,-1.8350836 -2.413583,-1.83206 -3.938152,0.00493 -1.340813,1.6155813 -9.243865,5.7258383 -9.84794,5.1217643 -0.217373,-0.217373 1.456081,-2.403653 3.718787,-4.8583988 C 22.532693,4.6984353 27.281845,2.970195 36.19282,3.0438928 49.616702,3.1549145 57.488283,9.4996999 63.63308,25.161757 65.108671,28.922791 66.863629,32 67.532986,32 68.823955,32 70,36.349959 70,41.125 70,42.70625 69.55,44 69,44 c -0.55,0 -1,0.9 -1,2 0,1.1 0.462714,2 1.028253,2 0.680794,0 0.998011,8.982863 0.938757,26.583488 -0.07884,23.419527 -0.271475,26.513652 -1.618494,25.996752 -0.84095,-0.3227 -2.050891,-0.26042 -2.688758,0.1384 -1.331192,0.83231 -2.598009,1.13294 -8.159758,1.93645 -3.765433,0.544 -3.882717,0.48672 -2,-0.97677 1.984986,-1.54299 1.985269,-1.56557 0.03775,-3.008278 -1.708905,-1.265939 -1.781762,-1.671095 -0.564302,-3.138045 1.034329,-1.246291 1.095454,-1.871381 0.234996,-2.403173 -0.639625,-0.39531 -1.111702,-2.273513 -1.049061,-4.173785 0.114421,-3.471024 -1.9288,-9.107382 -4.356254,-12.01701 -2.014133,-2.414209 -4.427478,-2.937984 -6.455927,-1.401149 -2.526512,1.914188 -7.555768,1.80817 -11.87237,-0.250274 -4.061579,-1.936832 -5.517209,-0.959131 -4.726932,3.174935 0.362737,1.897536 -0.599951,3.10482 -5.164837,6.477099 -3.085871,2.279667 -6.671093,5.813564 -7.96716,7.853104 -1.296066,2.039541 -3.304241,4.555897 -4.4626109,5.591903 -1.1583696,1.036006 -1.8222093,2.343033 -1.4751993,2.904513 0.3470917,0.5616 0.1426333,0.71907 -0.454483,0.35004 -0.5969756,-0.36895 -1.3680621,-0.21348 -1.7135255,0.34549 C 5.1646179,102.54266 3.7835237,103 2.440983,103 0.0116225,103 0,102.95115 0,92.740547 z M 61.834147,90.06029 c 0.227041,-1.551258 -0.09349,-2.142113 -1,-1.843344 -0.733781,0.24184 -1.484513,1.467084 -1.668294,2.722764 -0.227041,1.551258 0.09349,2.142113 1,1.843344 0.733781,-0.24184 1.484513,-1.467084 1.668294,-2.722764 z M 26.510081,52.983688 c 0.345464,-0.558971 1.047021,-0.757414 1.559017,-0.440983 C 29.456142,53.399945 29.197509,54 27.440983,54 26.583524,54 26.164618,53.54266 26.510081,52.983688 z M 38,36 c 0,-0.55 1.151558,-1 2.559017,-1 1.451367,0 2.291506,0.432842 1.940983,1 -0.339919,0.55 -1.491476,1 -2.559017,1 C 38.873442,37 38,36.55 38,36 z"
       id="path3121"
       inkscape:connector-curvature="0" />
    <path
       style="fill:#463a24"
       d="M 0.17088242,92.957589 C 0.10068466,86.939818 0.42911569,83.147174 0.99039394,83.494063 1.5055553,83.81245 2.8941229,83.105877 4.0760996,81.9239 5.8499021,80.150098 6.0940858,79.13972 5.474549,76.137426 5.0617195,74.136842 4.6455178,70.925 4.5496564,69 4.3414464,64.818921 2.4540864,60 1.0247508,60 -0.40447097,60 -0.2620714,53.662071 1.2,52.2 2.1333333,51.266667 2.1148148,51 1.1166667,51 -1.0555556,51 0.50183937,48.590405 3.074139,47.971407 5.1842515,47.46363 5.4570672,46.904987 5.1701518,43.679411 4.7872799,39.375068 7.2495845,28.802364 10.052049,22.717402 L 11.994398,18.5 11.406184,25.645679 c -0.362686,4.405947 -0.16887,7.92923 0.505506,9.189311 0.721817,1.348728 0.752765,2.254354 0.09101,2.663339 -1.462328,0.903768 -1.227551,7.260685 0.560592,15.178829 1.31349,5.816311 2.327239,7.75345 6.34407,12.122666 5.882601,6.398664 9.136142,6.808786 16.646853,2.098403 C 43.628846,61.83418 49.628761,55 46,55 44.573284,55 44.785663,52.194856 46.605685,47 47.472803,44.525 48.127802,41.15 48.06124,39.5 47.554772,26.945344 47.379979,25.750893 45.889441,24.65898 45.019291,24.021541 43.56367,22.060762 42.654727,20.301693 40.603877,16.332703 35.542733,12.440059 31.25,11.530051 29.431902,11.144636 28,10.215219 28,9.4205447 28,7.6110791 24.385358,7.5533888 23.695228,9.3518399 23.162188,10.74092 14.922579,15.255912 14.213908,14.547242 13.996535,14.329869 15.679946,12.132788 17.954821,9.6648395 22.867577,4.3351291 28.802603,2.469523 38.395507,3.2395492 51.2787,4.2736882 60.171051,12.581904 63.826512,27 c 1.960969,7.734575 3.238578,16.666804 2.61598,18.289267 -0.331027,0.862642 0.231154,2.384379 1.261524,3.414749 1.700651,1.700651 1.878107,4.011889 2.087496,27.188213 0.206605,22.868204 0.07332,25.269881 -1.371577,24.715421 -0.880231,-0.33778 -2.12231,-0.28783 -2.760177,0.11099 -1.331192,0.83231 -2.598009,1.13294 -8.159758,1.93645 -3.765433,0.544 -3.882717,0.48672 -2,-0.97677 1.984986,-1.54299 1.985269,-1.56557 0.03775,-3.008278 -1.708905,-1.265939 -1.781762,-1.671095 -0.564302,-3.138045 1.075671,-1.296104 1.117902,-1.857508 0.183185,-2.435194 -0.668121,-0.412922 -1.12173,-2.066125 -1.00802,-3.673785 0.256884,-3.631882 -1.760538,-9.856058 -3.72234,-11.484209 -0.809284,-0.671646 -1.223647,-2.001858 -0.920805,-2.956027 0.949124,-2.990426 -3.452763,-3.319499 -5.727105,-0.428142 -2.435365,3.096066 -7.899944,3.278281 -12.588478,0.41976 -4.109708,-2.50562 -5.433425,-1.789515 -4.628019,2.503668 0.587106,3.12954 0.298257,3.562179 -4.983123,7.463764 -3.083495,2.277911 -6.666773,5.810372 -7.96284,7.849912 -1.296066,2.039541 -3.304241,4.555897 -4.4626109,5.591903 -1.1583696,1.036006 -1.8222093,2.343033 -1.4751993,2.904513 0.3470917,0.5616 0.1426333,0.71907 -0.454483,0.35004 -0.5969756,-0.36895 -1.3680621,-0.21348 -1.7135255,0.34549 C 5.1646179,102.54266 3.8483299,103 2.584997,103 0.34929955,103 0.28490309,102.73212 0.17088242,92.957589 z M 61.834147,90.06029 c 0.227041,-1.551258 -0.09349,-2.142113 -1,-1.843344 -0.733781,0.24184 -1.484513,1.467084 -1.668294,2.722764 -0.227041,1.551258 0.09349,2.142113 1,1.843344 0.733781,-0.24184 1.484513,-1.467084 1.668294,-2.722764 z M 26.510081,52.983688 c 0.345464,-0.558971 1.047021,-0.757414 1.559017,-0.440983 C 29.456142,53.399945 29.197509,54 27.440983,54 26.583524,54 26.164618,53.54266 26.510081,52.983688 z M 38,36 c 0,-0.55 1.151558,-1 2.559017,-1 1.451367,0 2.291506,0.432842 1.940983,1 -0.339919,0.55 -1.491476,1 -2.559017,1 C 38.873442,37 38,36.55 38,36 z"
       id="path3119"
       inkscape:connector-curvature="0" />
    <path
       style="fill:#373426"
       d="M 0.17088242,92.957589 C 0.10068466,86.939818 0.42911569,83.147174 0.99039394,83.494063 1.5055553,83.81245 2.8941229,83.105877 4.0760996,81.9239 5.8499021,80.150098 6.0940858,79.13972 5.474549,76.137426 5.0617195,74.136842 4.6455178,70.925 4.5496564,69 4.3414464,64.818921 2.4540864,60 1.0247508,60 -0.40447097,60 -0.2620714,53.662071 1.2,52.2 2.1333333,51.266667 2.1148148,51 1.1166667,51 -1.0614343,51 0.50561777,48.588536 3.074139,47.987736 5.1283547,47.507237 5.5479722,46.737004 5.8131319,42.960153 5.9853544,40.507069 6.5478544,38.0725 7.0631319,37.55 7.5784093,37.0275 8.0316284,35.0025 8.0702853,33.05 8.1089422,31.0975 8.5273138,28.6 9,27.5 c 0.6730799,-1.566341 0.9153807,-1.024268 1.117472,2.5 0.141923,2.475 0.153732,6.75 0.02624,9.5 -0.3696983,7.97452 3.165661,19.82059 7.490392,25.098354 6.36363,7.765972 8.689646,8.093593 22.53547,3.174137 1.924846,-0.683902 3.261197,-2.406166 4.790312,-6.173661 1.166404,-2.873835 1.845526,-5.942337 1.509161,-6.818892 -0.336366,-0.876556 0.132703,-3.773133 1.042375,-6.436838 1.023504,-2.997025 1.625397,-7.819574 1.579042,-12.651756 -0.06205,-6.468239 -0.509797,-8.550741 -2.60838,-12.131703 C 42.835132,17.336588 35.062448,9.7893709 30.959218,8.4870562 29.84844,8.1345091 29,6.9726652 29,5.8041269 29,3.8570984 29.428916,3.7706063 36.75,4.2413166 50.53475,5.1276093 57.295857,10.039081 62.331201,22.824271 c 2.233872,5.672002 4.865463,19.980735 4.111597,22.355958 -0.301022,0.948435 0.2614,2.524094 1.25605,3.518896 1.61266,1.61291 1.835429,4.266359 2.128687,25.355311 l 0.327534,23.55388 -2.624587,1.195842 c -5.66178,2.579682 -6.393213,1.507692 -4.392543,-6.437684 0.9874,-3.921319 0.909431,-4.740577 -0.589371,-6.19282 -1.61834,-1.568068 -1.823999,-1.531707 -3.259912,0.576346 -2.143476,3.146823 -2.777527,2.852936 -4.314934,-2 -0.740519,-2.3375 -2.162545,-5.444467 -3.16006,-6.90437 C 50.816148,76.385726 50,74.75071 50,74.212261 c 0,-1.989571 -4.456879,-2.054116 -8.689696,-0.125844 -4.32131,1.968584 -4.396565,1.969014 -8.734906,0.04996 C 27.453453,71.870697 26,72.658782 26,77.701663 c 0,2.792261 -0.73286,3.82921 -4.75,6.720936 C 16.425004,87.895858 8.3115334,96.656776 6.1292239,100.75 5.4135135,102.09241 3.993487,103 2.6088302,103 0.34293731,103 0.28525633,102.7624 0.17088242,92.957589 z M 20,9.0352652 C 20,8.0568244 23.932417,5 25.191121,5 25.601481,5 25.701598,5.6140475 25.413603,6.36455 24.787351,7.9965389 20,10.358302 20,9.0352652 z"
       id="path3117"
       inkscape:connector-curvature="0" />
    <path
       style="fill:#2a2a25"
       d="m 0.51421152,98.75 c 0.42765236,-2.3375 0.81132168,-6.201745 0.85259838,-8.587212 0.041277,-2.385467 0.2381305,-3.847967 0.4374527,-3.25 C 3.0827413,90.748224 6.7136376,84.016515 7.947019,75.524072 8.4282101,72.210832 9.1351267,68.7125 9.5179447,67.75 10.006927,66.520576 9.735943,66 8.6069888,66 6.6542334,66 6.6583985,66.219655 8.5115586,60.967239 9.8660327,57.128251 9.863079,56.506185 8.4831371,54.981367 7.2637607,53.633971 7.1649972,52.696224 8.0087391,50.477014 8.7445797,48.541607 8.7533747,47.353375 8.0371606,46.637161 6.6914535,45.291453 6.7281189,43.773445 8.1898611,40.3151 9.3496392,37.571174 9.3971469,37.639055 10.068915,43 c 2.096906,16.73405 1.734049,15.786224 8.76756,22.901899 5.678228,5.744561 6.556526,7.134144 6.789486,10.741865 0.260048,4.02719 0.107312,4.249927 -5.429193,7.917461 C 13.079789,89.275708 6.1112577,96.633496 5.3379929,100.25 4.8863637,102.36224 4.1686686,103 2.2433309,103 -0.1609935,103 -0.23159166,102.82648 0.51421152,98.75 z M 63,97.328741 c 0,-0.919193 0.644859,-2.383821 1.433021,-3.25473 2.226172,-2.459892 3.024132,-11.162134 1.242185,-13.546787 -1.326914,-1.775714 -1.733083,-1.834209 -4.066144,-0.585592 -3.745294,2.00442 -6.893569,0.256362 -8.5438,-4.743885 C 52.131223,72.367579 50.73749,70.635035 48.368547,69.359274 46.515846,68.361529 45,67.491661 45,67.426234 45,67.360807 45.72,65.864002 46.6,64.1 c 0.88,-1.764002 1.579719,-4.870639 1.554932,-6.903638 -0.02479,-2.032999 0.450345,-5.265622 1.05585,-7.183607 C 50.952421,44.495976 50.558906,27.157022 48.597716,23 46.560145,18.681078 44.80604,15.676145 43.175872,13.711912 42.490547,12.886147 42.058116,11.772656 42.214913,11.23749 42.371711,10.702323 41.375,9.3199269 40,8.1654988 37.667225,6.2069384 37.635619,6.0643132 39.527494,6.0332693 c 1.115121,-0.018298 3.021067,0.6626563 4.235433,1.5132321 1.214367,0.8505757 3.798801,1.6892526 5.743186,1.8637265 1.944384,0.1744738 4.49518,1.1660481 5.668434,2.2034991 3.704642,3.27583 8.544278,15.205774 9.284305,22.886273 0.370952,3.85 0.891927,9.025 1.157722,11.5 0.992204,9.239118 1.250366,12.62302 1.316023,17.25 0.05003,3.525599 0.454056,4.75 1.567403,4.75 1.221184,0 1.5,1.657407 1.5,8.916667 0,5.900619 -0.394302,9.0481 -1.165719,9.305239 -0.887625,0.295875 -0.887625,1.186313 0,3.732557 C 70.287503,94.123178 70.338918,98 68.940983,98 68.358524,98 68.210876,97.4375 68.612877,96.75 69.014878,96.0625 68.443503,96.2875 67.343154,97.25 64.818881,99.458038 63,99.491014 63,97.328741 z M 56,58 c 0,-0.55 -0.45,-1 -1,-1 -0.55,0 -1,0.45 -1,1 0,0.55 0.45,1 1,1 0.55,0 1,-0.45 1,-1 z m 0,-5.559017 C 56,50.989616 55.567158,50.149477 55,50.5 54.45,50.839919 54,51.991476 54,53.059017 54,54.126558 54.45,55 55,55 c 0.55,0 1,-1.151558 1,-2.559017 z"
       id="path3115"
       inkscape:connector-curvature="0" />
    <path
       style="fill:#2f2b1d"
       d="M 0.5,98 C 0.16008131,97.45 0.35852366,97 0.94098301,97 1.5234424,97 2,97.45 2,98 2,98.55 1.8015576,99 1.559017,99 1.3164763,99 0.83991869,98.55 0.5,98 z M 63,97.166667 c 0,-2.757348 0.989032,-3.21996 3.444444,-1.611111 1.218364,0.798302 2.516786,1.149881 2.885382,0.781285 C 69.698422,95.968245 70,96.239812 70,96.940322 70,97.649268 69.349134,97.964217 68.532025,97.650663 67.724639,97.34084 66.798081,97.517695 66.473008,98.043674 65.449412,99.699887 63,99.081359 63,97.166667 z M 15.433493,86.691193 C 18.38364,84.873656 24,79.197404 24,78.033333 24,77.465 24.45,77 25,77 c 0.55,0 1,0.836289 1,1.85842 0,1.695347 -9.74208,9.235867 -11.734616,9.082773 -0.420961,-0.03234 0.104688,-0.594844 1.168109,-1.25 z M 11.154497,83.562347 C 11.344523,82.644953 11.95,81.918127 12.5,81.947179 c 1.484289,0.0784 1.211605,2.315619 -0.345503,2.834655 -0.841121,0.280374 -1.215987,-0.17677 -1,-1.219487 z M 14,81.106989 c 0,-1.316799 2.749595,-2.140309 4.676885,-1.400738 1.500444,0.575774 1.47414,0.722906 -0.25,1.39833 C 15.737195,82.158255 14,82.1592 14,81.106989 z M 55.830866,79.75 C 54.482637,78.663695 52.563987,75 53.343326,75 c 0.154306,0 1.278655,1.35 2.498553,3 2.404962,3.252885 2.402183,3.694378 -0.01101,1.75 z m 12.674029,-5.74208 c -0.337227,-0.545644 -0.152468,-1.783144 0.410574,-2.75 0.878146,-1.507951 1.028038,-1.366882 1.054122,0.99208 0.0318,2.875739 -0.430747,3.430885 -1.464696,1.75792 z M 21.25,71.177253 c -0.9625,-1.00251 -3.011269,-3.275291 -4.55282,-5.050623 -2.173462,-2.503075 -3.296184,-3.073973 -5,-2.542472 C 10.488731,63.96113 9.1869678,64.758379 8.804373,65.355821 7.5797633,67.268114 6.9099911,65.366941 7.8952996,62.775383 9.6308541,58.210529 12.035155,58.938667 19.217991,66.20444 22.912886,69.941998 25.275386,73 24.467991,73 23.660596,73 22.2125,72.179764 21.25,71.177253 z M 8.7312234,47.854404 C 6.6773135,44.275672 6.6539352,43.956489 8.1790144,40.3151 9.2974614,37.644615 9.3943551,37.833913 10.065162,44 c 0.388924,3.575 0.637418,6.583449 0.552209,6.685443 -0.08521,0.101994 -0.9339747,-1.171974 -1.8861476,-2.831039 z M 50,38.5 c 0,-1.490712 0.430599,-2.351909 1,-2 0.55,0.339919 1,1.239919 1,2 0,0.760081 -0.45,1.660081 -1,2 -0.569401,0.351909 -1,-0.509288 -1,-2 z m 13.252183,-8 c 0.0111,-2.2 0.215885,-2.982253 0.455078,-1.738341 0.239193,1.243913 0.230112,3.043913 -0.02018,4 C 63.436788,33.717747 63.241084,32.7 63.252183,30.5 z M 50,28.5 c 0,-1.490712 0.430599,-2.351909 1,-2 0.55,0.339919 1,1.239919 1,2 0,0.760081 -0.45,1.660081 -1,2 -0.569401,0.351909 -1,-0.509288 -1,-2 z m 9.734619,-7.314557 C 58.784314,19.708449 56.670213,16.7 55.036617,14.5 53.403021,12.3 52.051493,10.084059 52.033221,9.575686 c -0.07141,-1.9867424 5.296781,4.183721 7.632997,8.773748 2.727689,5.359165 2.768033,7.03186 0.0684,2.836009 z M 39,7.5 C 37.985047,6.277057 38.039677,6 39.295768,6 41.572507,6 44,7.087255 44,8.1069888 44,9.565552 40.346124,9.1219796 39,7.5 z"
       id="path3113"
       inkscape:connector-curvature="0" />
  </g>
</svg>
