<?xml version="1.0" encoding="UTF-8"?>
<!DOCTYPE svg PUBLIC "-//W3C//DTD SVG 1.1//EN" "http://www.w3.org/Graphics/SVG/1.1/DTD/svg11.dtd">
<svg version="1.1" xmlns="http://www.w3.org/2000/svg" xmlns:xlink="http://www.w3.org/1999/xlink" x="0" y="0" width="520" height="280" viewBox="0, 0, 520, 280">
  <g id="Background">
    <rect x="0" y="0" width="520" height="280" fill="#000000" fill-opacity="0"/>
  </g>
  <g id="Layer_1">
    <g>
      <path d="M80.5,40.5 L40.5,40.5 z" fill="#8FC7ED"/>
      <path d="M80.5,40.5 L40.5,40.5 z" fill-opacity="0" stroke="#294270" stroke-width="1.5"/>
    </g>
    <g>
      <path d="M120.5,40.5 L80.5,40.5 z" fill="#8FC7ED"/>
      <path d="M120.5,40.5 L80.5,40.5 z" fill-opacity="0" stroke="#294270" stroke-width="1.5"/>
    </g>
    <g>
      <path d="M160.5,40.5 L120.5,40.5 z" fill="#8FC7ED"/>
      <path d="M160.5,40.5 L120.5,40.5 z" fill-opacity="0" stroke="#294270" stroke-width="1.5"/>
    </g>
    <g>
      <path d="M200.5,40.5 L160.5,40.5 z" fill="#8FC7ED"/>
      <path d="M200.5,40.5 L160.5,40.5 z" fill-opacity="0" stroke="#294270" stroke-width="1.5"/>
    </g>
    <g>
      <path d="M240.5,40.5 L200.5,40.5 z" fill="#8FC7ED"/>
      <path d="M240.5,40.5 L200.5,40.5 z" fill-opacity="0" stroke="#294270" stroke-width="1.5"/>
    </g>
    <g>
      <path d="M40.5,40.5 L80.5,40.5 L80.5,80.5 L40.5,80.5 L40.5,40.5 z" fill="#8FC7ED"/>
      <path d="M40.5,40.5 L80.5,40.5 L80.5,80.5 L40.5,80.5 L40.5,40.5 z" fill-opacity="0" stroke="#294270" stroke-width="1.5"/>
    </g>
    <g>
      <path d="M80.5,40.5 L120.5,40.5 L120.5,80.5 L80.5,80.5 L80.5,40.5 z" fill="#65A1CF"/>
      <path d="M80.5,40.5 L120.5,40.5 L120.5,80.5 L80.5,80.5 L80.5,40.5 z" fill-opacity="0" stroke="#294270" stroke-width="1.5"/>
    </g>
    <g>
      <path d="M120.5,40.5 L160.5,40.5 L160.5,80.5 L120.5,80.5 L120.5,40.5 z" fill="#65A1CF"/>
      <path d="M120.5,40.5 L160.5,40.5 L160.5,80.5 L120.5,80.5 L120.5,40.5 z" fill-opacity="0" stroke="#294270" stroke-width="1.5"/>
    </g>
    <g>
      <path d="M160.5,40.5 L200.5,40.5 L200.5,80.5 L160.5,80.5 L160.5,40.5 z" fill="#65A1CF"/>
      <path d="M160.5,40.5 L200.5,40.5 L200.5,80.5 L160.5,80.5 L160.5,40.5 z" fill-opacity="0" stroke="#294270" stroke-width="1.5"/>
    </g>
    <g>
      <path d="M200.5,40.5 L240.5,40.5 L240.5,80.5 L200.5,80.5 L200.5,40.5 z" fill="#8FC7ED"/>
      <path d="M200.5,40.5 L240.5,40.5 L240.5,80.5 L200.5,80.5 L200.5,40.5 z" fill-opacity="0" stroke="#294270" stroke-width="1.5"/>
    </g>
    <g>
      <path d="M40.5,80.5 L80.5,80.5 L80.5,120.5 L40.5,120.5 L40.5,80.5 z" fill="#8FC7ED"/>
      <path d="M40.5,80.5 L80.5,80.5 L80.5,120.5 L40.5,120.5 L40.5,80.5 z" fill-opacity="0" stroke="#294270" stroke-width="1.5"/>
    </g>
    <g>
      <path d="M80.5,80.5 L120.5,80.5 L120.5,120.5 L80.5,120.5 L80.5,80.5 z" fill="#65A1CF"/>
      <path d="M80.5,80.5 L120.5,80.5 L120.5,120.5 L80.5,120.5 L80.5,80.5 z" fill-opacity="0" stroke="#294270" stroke-width="1.5"/>
    </g>
    <g>
      <path d="M120.5,80.5 L160.5,80.5 L160.5,120.5 L120.5,120.5 L120.5,80.5 z" fill="#FABA00"/>
      <path d="M120.5,80.5 L160.5,80.5 L160.5,120.5 L120.5,120.5 L120.5,80.5 z" fill-opacity="0" stroke="#294270" stroke-width="1.5"/>
    </g>
    <g>
      <path d="M160.5,80.5 L200.5,80.5 L200.5,120.5 L160.5,120.5 L160.5,80.5 z" fill="#65A1CF"/>
      <path d="M160.5,80.5 L200.5,80.5 L200.5,120.5 L160.5,120.5 L160.5,80.5 z" fill-opacity="0" stroke="#294270" stroke-width="1.5"/>
    </g>
    <g>
      <path d="M200.5,80.5 L240.5,80.5 L240.5,120.5 L200.5,120.5 L200.5,80.5 z" fill="#8FC7ED"/>
      <path d="M200.5,80.5 L240.5,80.5 L240.5,120.5 L200.5,120.5 L200.5,80.5 z" fill-opacity="0" stroke="#294270" stroke-width="1.5"/>
    </g>
    <g>
      <path d="M40.5,120.5 L80.5,120.5 L80.5,160.5 L40.5,160.5 L40.5,120.5 z" fill="#8FC7ED"/>
      <path d="M40.5,120.5 L80.5,120.5 L80.5,160.5 L40.5,160.5 L40.5,120.5 z" fill-opacity="0" stroke="#294270" stroke-width="1.5"/>
    </g>
    <g>
      <path d="M80.5,120.5 L120.5,120.5 L120.5,160.5 L80.5,160.5 L80.5,120.5 z" fill="#65A1CF"/>
      <path d="M80.5,120.5 L120.5,120.5 L120.5,160.5 L80.5,160.5 L80.5,120.5 z" fill-opacity="0" stroke="#294270" stroke-width="1.5"/>
    </g>
    <g>
      <path d="M120.5,120.5 L160.5,120.5 L160.5,160.5 L120.5,160.5 L120.5,120.5 z" fill="#65A1CF"/>
      <path d="M120.5,120.5 L160.5,120.5 L160.5,160.5 L120.5,160.5 L120.5,120.5 z" fill-opacity="0" stroke="#294270" stroke-width="1.5"/>
    </g>
    <g>
      <path d="M160.5,120.5 L200.5,120.5 L200.5,160.5 L160.5,160.5 L160.5,120.5 z" fill="#65A1CF"/>
      <path d="M160.5,120.5 L200.5,120.5 L200.5,160.5 L160.5,160.5 L160.5,120.5 z" fill-opacity="0" stroke="#294270" stroke-width="1.5"/>
    </g>
    <g>
      <path d="M200.5,120.5 L240.5,120.5 L240.5,160.5 L200.5,160.5 L200.5,120.5 z" fill="#8FC7ED"/>
      <path d="M200.5,120.5 L240.5,120.5 L240.5,160.5 L200.5,160.5 L200.5,120.5 z" fill-opacity="0" stroke="#294270" stroke-width="1.5"/>
    </g>
    <g>
      <path d="M40.5,160.5 L80.5,160.5 L80.5,200.5 L40.5,200.5 L40.5,160.5 z" fill="#8FC7ED"/>
      <path d="M40.5,160.5 L80.5,160.5 L80.5,200.5 L40.5,200.5 L40.5,160.5 z" fill-opacity="0" stroke="#294270" stroke-width="1.5"/>
    </g>
    <g>
      <path d="M80.5,160.5 L120.5,160.5 L120.5,200.5 L80.5,200.5 L80.5,160.5 z" fill="#8FC7ED"/>
      <path d="M80.5,160.5 L120.5,160.5 L120.5,200.5 L80.5,200.5 L80.5,160.5 z" fill-opacity="0" stroke="#294270" stroke-width="1.5"/>
    </g>
    <g>
      <path d="M120.5,160.5 L160.5,160.5 L160.5,200.5 L120.5,200.5 L120.5,160.5 z" fill="#8FC7ED"/>
      <path d="M120.5,160.5 L160.5,160.5 L160.5,200.5 L120.5,200.5 L120.5,160.5 z" fill-opacity="0" stroke="#294270" stroke-width="1.5"/>
    </g>
    <g>
      <path d="M160.5,160.5 L200.5,160.5 L200.5,200.5 L160.5,200.5 L160.5,160.5 z" fill="#8FC7ED"/>
      <path d="M160.5,160.5 L200.5,160.5 L200.5,200.5 L160.5,200.5 L160.5,160.5 z" fill-opacity="0" stroke="#294270" stroke-width="1.5"/>
    </g>
    <g>
      <path d="M200.5,160.5 L240.5,160.5 L240.5,200.5 L200.5,200.5 L200.5,160.5 z" fill="#8FC7ED"/>
      <path d="M200.5,160.5 L240.5,160.5 L240.5,200.5 L200.5,200.5 L200.5,160.5 z" fill-opacity="0" stroke="#294270" stroke-width="1.5"/>
    </g>
    <g>
      <path d="M40.5,200.5 L80.5,200.5 L80.5,240.5 L40.5,240.5 L40.5,200.5 z" fill="#8FC7ED"/>
      <path d="M40.5,200.5 L80.5,200.5 L80.5,240.5 L40.5,240.5 L40.5,200.5 z" fill-opacity="0" stroke="#294270" stroke-width="1.5"/>
    </g>
    <g>
      <path d="M80.5,200.5 L120.5,200.5 L120.5,240.5 L80.5,240.5 L80.5,200.5 z" fill="#8FC7ED"/>
      <path d="M80.5,200.5 L120.5,200.5 L120.5,240.5 L80.5,240.5 L80.5,200.5 z" fill-opacity="0" stroke="#294270" stroke-width="1.5"/>
    </g>
    <g>
      <path d="M120.5,200.5 L160.5,200.5 L160.5,240.5 L120.5,240.5 L120.5,200.5 z" fill="#8FC7ED"/>
      <path d="M120.5,200.5 L160.5,200.5 L160.5,240.5 L120.5,240.5 L120.5,200.5 z" fill-opacity="0" stroke="#294270" stroke-width="1.5"/>
    </g>
    <g>
      <path d="M160.5,200.5 L200.5,200.5 L200.5,240.5 L160.5,240.5 L160.5,200.5 z" fill="#8FC7ED"/>
      <path d="M160.5,200.5 L200.5,200.5 L200.5,240.5 L160.5,240.5 L160.5,200.5 z" fill-opacity="0" stroke="#294270" stroke-width="1.5"/>
    </g>
    <g>
      <path d="M200.5,200.5 L240.5,200.5 L240.5,240.5 L200.5,240.5 L200.5,200.5 z" fill="#8FC7ED"/>
      <path d="M200.5,200.5 L240.5,200.5 L240.5,240.5 L200.5,240.5 L200.5,200.5 z" fill-opacity="0" stroke="#294270" stroke-width="1.5"/>
    </g>
    <g>
      <path d="M60.5,70.5 C54.977,70.5 50.5,66.023 50.5,60.5 C50.5,54.977 54.977,50.5 60.5,50.5 C66.023,50.5 70.5,54.977 70.5,60.5 C70.5,66.023 66.023,70.5 60.5,70.5 z" fill="#294270"/>
      <path d="M60.5,70.5 C54.977,70.5 50.5,66.023 50.5,60.5 C50.5,54.977 54.977,50.5 60.5,50.5 C66.023,50.5 70.5,54.977 70.5,60.5 C70.5,66.023 66.023,70.5 60.5,70.5 z" fill-opacity="0" stroke="#294270" stroke-width="1.5"/>
    </g>
    <g>
      <path d="M100.5,110.5 C94.977,110.5 90.5,106.023 90.5,100.5 C90.5,94.977 94.977,90.5 100.5,90.5 C106.023,90.5 110.5,94.977 110.5,100.5 C110.5,106.023 106.023,110.5 100.5,110.5 z" fill="#F0801A"/>
      <path d="M100.5,110.5 C94.977,110.5 90.5,106.023 90.5,100.5 C90.5,94.977 94.977,90.5 100.5,90.5 C106.023,90.5 110.5,94.977 110.5,100.5 C110.5,106.023 106.023,110.5 100.5,110.5 z" fill-opacity="0" stroke="#294270" stroke-width="1.5"/>
    </g>
    <g>
      <path d="M140.5,150.5 C134.977,150.5 130.5,146.023 130.5,140.5 C130.5,134.977 134.977,130.5 140.5,130.5 C146.023,130.5 150.5,134.977 150.5,140.5 C150.5,146.023 146.023,150.5 140.5,150.5 z" fill="#F0801A"/>
      <path d="M140.5,150.5 C134.977,150.5 130.5,146.023 130.5,140.5 C130.5,134.977 134.977,130.5 140.5,130.5 C146.023,130.5 150.5,134.977 150.5,140.5 C150.5,146.023 146.023,150.5 140.5,150.5 z" fill-opacity="0" stroke="#294270" stroke-width="1.5"/>
    </g>
    <g>
      <path d="M180.5,70.5 C174.977,70.5 170.5,66.023 170.5,60.5 C170.5,54.977 174.977,50.5 180.5,50.5 C186.023,50.5 190.5,54.977 190.5,60.5 C190.5,66.023 186.023,70.5 180.5,70.5 z" fill="#F0801A"/>
      <path d="M180.5,70.5 C174.977,70.5 170.5,66.023 170.5,60.5 C170.5,54.977 174.977,50.5 180.5,50.5 C186.023,50.5 190.5,54.977 190.5,60.5 C190.5,66.023 186.023,70.5 180.5,70.5 z" fill-opacity="0" stroke="#294270" stroke-width="1.5"/>
    </g>
    <g>
      <path d="M140.5,230.5 C134.977,230.5 130.5,226.023 130.5,220.5 C130.5,214.977 134.977,210.5 140.5,210.5 C146.023,210.5 150.5,214.977 150.5,220.5 C150.5,226.023 146.023,230.5 140.5,230.5 z" fill="#294270"/>
      <path d="M140.5,230.5 C134.977,230.5 130.5,226.023 130.5,220.5 C130.5,214.977 134.977,210.5 140.5,210.5 C146.023,210.5 150.5,214.977 150.5,220.5 C150.5,226.023 146.023,230.5 140.5,230.5 z" fill-opacity="0" stroke="#294270" stroke-width="1.5"/>
    </g>
    <g>
      <path d="M220.5,150.5 C214.977,150.5 210.5,146.023 210.5,140.5 C210.5,134.977 214.977,130.5 220.5,130.5 C226.023,130.5 230.5,134.977 230.5,140.5 C230.5,146.023 226.023,150.5 220.5,150.5 z" fill="#294270"/>
      <path d="M220.5,150.5 C214.977,150.5 210.5,146.023 210.5,140.5 C210.5,134.977 214.977,130.5 220.5,130.5 C226.023,130.5 230.5,134.977 230.5,140.5 C230.5,146.023 226.023,150.5 220.5,150.5 z" fill-opacity="0" stroke="#294270" stroke-width="1.5"/>
    </g>
    <g>
      <path d="M60.5,190.5 C54.977,190.5 50.5,186.023 50.5,180.5 C50.5,174.977 54.977,170.5 60.5,170.5 C66.023,170.5 70.5,174.977 70.5,180.5 C70.5,186.023 66.023,190.5 60.5,190.5 z" fill="#294270"/>
      <path d="M60.5,190.5 C54.977,190.5 50.5,186.023 50.5,180.5 C50.5,174.977 54.977,170.5 60.5,170.5 C66.023,170.5 70.5,174.977 70.5,180.5 C70.5,186.023 66.023,190.5 60.5,190.5 z" fill-opacity="0" stroke="#294270" stroke-width="1.5"/>
    </g>
    <g>
      <path d="M320.5,40.5 L280.5,40.5 z" fill="#8FC7ED"/>
      <path d="M320.5,40.5 L280.5,40.5 z" fill-opacity="0" stroke="#294270" stroke-width="1.5"/>
    </g>
    <g>
      <path d="M360.5,40.5 L320.5,40.5 z" fill="#8FC7ED"/>
      <path d="M360.5,40.5 L320.5,40.5 z" fill-opacity="0" stroke="#294270" stroke-width="1.5"/>
    </g>
    <g>
      <path d="M400.5,40.5 L360.5,40.5 z" fill="#8FC7ED"/>
      <path d="M400.5,40.5 L360.5,40.5 z" fill-opacity="0" stroke="#294270" stroke-width="1.5"/>
    </g>
    <g>
      <path d="M440.5,40.5 L400.5,40.5 z" fill="#8FC7ED"/>
      <path d="M440.5,40.5 L400.5,40.5 z" fill-opacity="0" stroke="#294270" stroke-width="1.5"/>
    </g>
    <g>
      <path d="M480.5,40.5 L440.5,40.5 z" fill="#8FC7ED"/>
      <path d="M480.5,40.5 L440.5,40.5 z" fill-opacity="0" stroke="#294270" stroke-width="1.5"/>
    </g>
    <g>
      <path d="M280.5,40.5 L320.5,40.5 L320.5,80.5 L280.5,80.5 L280.5,40.5 z" fill="#FABA00"/>
      <path d="M280.5,40.5 L320.5,40.5 L320.5,80.5 L280.5,80.5 L280.5,40.5 z" fill-opacity="0" stroke="#294270" stroke-width="1.5"/>
    </g>
    <g>
      <path d="M320.5,40.5 L360.5,40.5 L360.5,80.5 L320.5,80.5 L320.5,40.5 z" fill="#65A1CF"/>
      <path d="M320.5,40.5 L360.5,40.5 L360.5,80.5 L320.5,80.5 L320.5,40.5 z" fill-opacity="0" stroke="#294270" stroke-width="1.5"/>
    </g>
    <g>
      <path d="M360.5,40.5 L400.5,40.5 L400.5,80.5 L360.5,80.5 L360.5,40.5 z" fill="#8FC7ED"/>
      <path d="M360.5,40.5 L400.5,40.5 L400.5,80.5 L360.5,80.5 L360.5,40.5 z" fill-opacity="0" stroke="#294270" stroke-width="1.5"/>
    </g>
    <g>
      <path d="M400.5,40.5 L440.5,40.5 L440.5,80.5 L400.5,80.5 L400.5,40.5 z" fill="#8FC7ED"/>
      <path d="M400.5,40.5 L440.5,40.5 L440.5,80.5 L400.5,80.5 L400.5,40.5 z" fill-opacity="0" stroke="#294270" stroke-width="1.5"/>
    </g>
    <g>
      <path d="M440.5,40.5 L480.5,40.5 L480.5,80.5 L440.5,80.5 L440.5,40.5 z" fill="#8FC7ED"/>
      <path d="M440.5,40.5 L480.5,40.5 L480.5,80.5 L440.5,80.5 L440.5,40.5 z" fill-opacity="0" stroke="#294270" stroke-width="1.5"/>
    </g>
    <g>
      <path d="M280.5,80.5 L320.5,80.5 L320.5,120.5 L280.5,120.5 L280.5,80.5 z" fill="#65A1CF"/>
      <path d="M280.5,80.5 L320.5,80.5 L320.5,120.5 L280.5,120.5 L280.5,80.5 z" fill-opacity="0" stroke="#294270" stroke-width="1.5"/>
    </g>
    <g>
      <path d="M320.5,80.5 L360.5,80.5 L360.5,120.5 L320.5,120.5 L320.5,80.5 z" fill="#65A1CF"/>
      <path d="M320.5,80.5 L360.5,80.5 L360.5,120.5 L320.5,120.5 L320.5,80.5 z" fill-opacity="0" stroke="#294270" stroke-width="1.5"/>
    </g>
    <g>
      <path d="M360.5,80.5 L400.5,80.5 L400.5,120.5 L360.5,120.5 L360.5,80.5 z" fill="#8FC7ED"/>
      <path d="M360.5,80.5 L400.5,80.5 L400.5,120.5 L360.5,120.5 L360.5,80.5 z" fill-opacity="0" stroke="#294270" stroke-width="1.5"/>
    </g>
    <g>
      <path d="M400.5,80.5 L440.5,80.5 L440.5,120.5 L400.5,120.5 L400.5,80.5 z" fill="#8FC7ED"/>
      <path d="M400.5,80.5 L440.5,80.5 L440.5,120.5 L400.5,120.5 L400.5,80.5 z" fill-opacity="0" stroke="#294270" stroke-width="1.5"/>
    </g>
    <g>
      <path d="M440.5,80.5 L480.5,80.5 L480.5,120.5 L440.5,120.5 L440.5,80.5 z" fill="#8FC7ED"/>
      <path d="M440.5,80.5 L480.5,80.5 L480.5,120.5 L440.5,120.5 L440.5,80.5 z" fill-opacity="0" stroke="#294270" stroke-width="1.5"/>
    </g>
    <g>
      <path d="M280.5,120.5 L320.5,120.5 L320.5,160.5 L280.5,160.5 L280.5,120.5 z" fill="#8FC7ED"/>
      <path d="M280.5,120.5 L320.5,120.5 L320.5,160.5 L280.5,160.5 L280.5,120.5 z" fill-opacity="0" stroke="#294270" stroke-width="1.5"/>
    </g>
    <g>
      <path d="M320.5,120.5 L360.5,120.5 L360.5,160.5 L320.5,160.5 L320.5,120.5 z" fill="#8FC7ED"/>
      <path d="M320.5,120.5 L360.5,120.5 L360.5,160.5 L320.5,160.5 L320.5,120.5 z" fill-opacity="0" stroke="#294270" stroke-width="1.5"/>
    </g>
    <g>
      <path d="M360.5,120.5 L400.5,120.5 L400.5,160.5 L360.5,160.5 L360.5,120.5 z" fill="#8FC7ED"/>
      <path d="M360.5,120.5 L400.5,120.5 L400.5,160.5 L360.5,160.5 L360.5,120.5 z" fill-opacity="0" stroke="#294270" stroke-width="1.5"/>
    </g>
    <g>
      <path d="M400.5,120.5 L440.5,120.5 L440.5,160.5 L400.5,160.5 L400.5,120.5 z" fill="#8FC7ED"/>
      <path d="M400.5,120.5 L440.5,120.5 L440.5,160.5 L400.5,160.5 L400.5,120.5 z" fill-opacity="0" stroke="#294270" stroke-width="1.5"/>
    </g>
    <g>
      <path d="M440.5,120.5 L480.5,120.5 L480.5,160.5 L440.5,160.5 L440.5,120.5 z" fill="#8FC7ED"/>
      <path d="M440.5,120.5 L480.5,120.5 L480.5,160.5 L440.5,160.5 L440.5,120.5 z" fill-opacity="0" stroke="#294270" stroke-width="1.5"/>
    </g>
    <g>
      <path d="M280.5,160.5 L320.5,160.5 L320.5,200.5 L280.5,200.5 L280.5,160.5 z" fill="#8FC7ED"/>
      <path d="M280.5,160.5 L320.5,160.5 L320.5,200.5 L280.5,200.5 L280.5,160.5 z" fill-opacity="0" stroke="#294270" stroke-width="1.5"/>
    </g>
    <g>
      <path d="M320.5,160.5 L360.5,160.5 L360.5,200.5 L320.5,200.5 L320.5,160.5 z" fill="#8FC7ED"/>
      <path d="M320.5,160.5 L360.5,160.5 L360.5,200.5 L320.5,200.5 L320.5,160.5 z" fill-opacity="0" stroke="#294270" stroke-width="1.5"/>
    </g>
    <g>
      <path d="M360.5,160.5 L400.5,160.5 L400.5,200.5 L360.5,200.5 L360.5,160.5 z" fill="#8FC7ED"/>
      <path d="M360.5,160.5 L400.5,160.5 L400.5,200.5 L360.5,200.5 L360.5,160.5 z" fill-opacity="0" stroke="#294270" stroke-width="1.5"/>
    </g>
    <g>
      <path d="M400.5,160.5 L440.5,160.5 L440.5,200.5 L400.5,200.5 L400.5,160.5 z" fill="#8FC7ED"/>
      <path d="M400.5,160.5 L440.5,160.5 L440.5,200.5 L400.5,200.5 L400.5,160.5 z" fill-opacity="0" stroke="#294270" stroke-width="1.5"/>
    </g>
    <g>
      <path d="M440.5,160.5 L480.5,160.5 L480.5,200.5 L440.5,200.5 L440.5,160.5 z" fill="#8FC7ED"/>
      <path d="M440.5,160.5 L480.5,160.5 L480.5,200.5 L440.5,200.5 L440.5,160.5 z" fill-opacity="0" stroke="#294270" stroke-width="1.5"/>
    </g>
    <g>
      <path d="M280.5,200.5 L320.5,200.5 L320.5,240.5 L280.5,240.5 L280.5,200.5 z" fill="#8FC7ED"/>
      <path d="M280.5,200.5 L320.5,200.5 L320.5,240.5 L280.5,240.5 L280.5,200.5 z" fill-opacity="0" stroke="#294270" stroke-width="1.5"/>
    </g>
    <g>
      <path d="M320.5,200.5 L360.5,200.5 L360.5,240.5 L320.5,240.5 L320.5,200.5 z" fill="#8FC7ED"/>
      <path d="M320.5,200.5 L360.5,200.5 L360.5,240.5 L320.5,240.5 L320.5,200.5 z" fill-opacity="0" stroke="#294270" stroke-width="1.5"/>
    </g>
    <g>
      <path d="M360.5,200.5 L400.5,200.5 L400.5,240.5 L360.5,240.5 L360.5,200.5 z" fill="#8FC7ED"/>
      <path d="M360.5,200.5 L400.5,200.5 L400.5,240.5 L360.5,240.5 L360.5,200.5 z" fill-opacity="0" stroke="#294270" stroke-width="1.5"/>
    </g>
    <g>
      <path d="M400.5,200.5 L440.5,200.5 L440.5,240.5 L400.5,240.5 L400.5,200.5 z" fill="#8FC7ED"/>
      <path d="M400.5,200.5 L440.5,200.5 L440.5,240.5 L400.5,240.5 L400.5,200.5 z" fill-opacity="0" stroke="#294270" stroke-width="1.5"/>
    </g>
    <g>
      <path d="M440.5,200.5 L480.5,200.5 L480.5,240.5 L440.5,240.5 L440.5,200.5 z" fill="#8FC7ED"/>
      <path d="M440.5,200.5 L480.5,200.5 L480.5,240.5 L440.5,240.5 L440.5,200.5 z" fill-opacity="0" stroke="#294270" stroke-width="1.5"/>
    </g>
    <g>
      <path d="M300.5,70.5 C294.977,70.5 290.5,66.023 290.5,60.5 C290.5,54.977 294.977,50.5 300.5,50.5 C306.023,50.5 310.5,54.977 310.5,60.5 C310.5,66.023 306.023,70.5 300.5,70.5 z" fill="#294270" fill-opacity="0.91"/>
      <path d="M300.5,70.5 C294.977,70.5 290.5,66.023 290.5,60.5 C290.5,54.977 294.977,50.5 300.5,50.5 C306.023,50.5 310.5,54.977 310.5,60.5 C310.5,66.023 306.023,70.5 300.5,70.5 z" fill-opacity="0" stroke="#294270" stroke-width="1.5"/>
    </g>
    <g>
      <path d="M340.5,110.5 C334.977,110.5 330.5,106.023 330.5,100.5 C330.5,94.977 334.977,90.5 340.5,90.5 C346.023,90.5 350.5,94.977 350.5,100.5 C350.5,106.023 346.023,110.5 340.5,110.5 z" fill="#F0801A"/>
      <path d="M340.5,110.5 C334.977,110.5 330.5,106.023 330.5,100.5 C330.5,94.977 334.977,90.5 340.5,90.5 C346.023,90.5 350.5,94.977 350.5,100.5 C350.5,106.023 346.023,110.5 340.5,110.5 z" fill-opacity="0" stroke="#294270" stroke-width="1.5"/>
    </g>
    <g>
      <path d="M380.5,150.5 C374.977,150.5 370.5,146.023 370.5,140.5 C370.5,134.977 374.977,130.5 380.5,130.5 C386.023,130.5 390.5,134.977 390.5,140.5 C390.5,146.023 386.023,150.5 380.5,150.5 z" fill="#294270"/>
      <path d="M380.5,150.5 C374.977,150.5 370.5,146.023 370.5,140.5 C370.5,134.977 374.977,130.5 380.5,130.5 C386.023,130.5 390.5,134.977 390.5,140.5 C390.5,146.023 386.023,150.5 380.5,150.5 z" fill-opacity="0" stroke="#294270" stroke-width="1.5"/>
    </g>
    <g>
      <path d="M420.5,70.5 C414.977,70.5 410.5,66.023 410.5,60.5 C410.5,54.977 414.977,50.5 420.5,50.5 C426.023,50.5 430.5,54.977 430.5,60.5 C430.5,66.023 426.023,70.5 420.5,70.5 z" fill="#294270"/>
      <path d="M420.5,70.5 C414.977,70.5 410.5,66.023 410.5,60.5 C410.5,54.977 414.977,50.5 420.5,50.5 C426.023,50.5 430.5,54.977 430.5,60.5 C430.5,66.023 426.023,70.5 420.5,70.5 z" fill-opacity="0" stroke="#294270" stroke-width="1.5"/>
    </g>
    <g>
      <path d="M380.5,230.5 C374.977,230.5 370.5,226.023 370.5,220.5 C370.5,214.977 374.977,210.5 380.5,210.5 C386.023,210.5 390.5,214.977 390.5,220.5 C390.5,226.023 386.023,230.5 380.5,230.5 z" fill="#294270"/>
      <path d="M380.5,230.5 C374.977,230.5 370.5,226.023 370.5,220.5 C370.5,214.977 374.977,210.5 380.5,210.5 C386.023,210.5 390.5,214.977 390.5,220.5 C390.5,226.023 386.023,230.5 380.5,230.5 z" fill-opacity="0" stroke="#294270" stroke-width="1.5"/>
    </g>
    <g>
      <path d="M460.5,150.5 C454.977,150.5 450.5,146.023 450.5,140.5 C450.5,134.977 454.977,130.5 460.5,130.5 C466.023,130.5 470.5,134.977 470.5,140.5 C470.5,146.023 466.023,150.5 460.5,150.5 z" fill="#294270"/>
      <path d="M460.5,150.5 C454.977,150.5 450.5,146.023 450.5,140.5 C450.5,134.977 454.977,130.5 460.5,130.5 C466.023,130.5 470.5,134.977 470.5,140.5 C470.5,146.023 466.023,150.5 460.5,150.5 z" fill-opacity="0" stroke="#294270" stroke-width="1.5"/>
    </g>
    <g>
      <path d="M300.5,190.5 C294.977,190.5 290.5,186.023 290.5,180.5 C290.5,174.977 294.977,170.5 300.5,170.5 C306.023,170.5 310.5,174.977 310.5,180.5 C310.5,186.023 306.023,190.5 300.5,190.5 z" fill="#294270"/>
      <path d="M300.5,190.5 C294.977,190.5 290.5,186.023 290.5,180.5 C290.5,174.977 294.977,170.5 300.5,170.5 C306.023,170.5 310.5,174.977 310.5,180.5 C310.5,186.023 306.023,190.5 300.5,190.5 z" fill-opacity="0" stroke="#294270" stroke-width="1.5"/>
    </g>
  </g>
</svg>
