<?xml version="1.0" encoding="UTF-8" standalone="no"?>
<!DOCTYPE svg PUBLIC "-//W3C//DTD SVG 1.1//EN"
 "http://www.w3.org/Graphics/SVG/1.1/DTD/svg11.dtd">
<!-- Generated by graphviz version 2.43.0 (0)
 -->
<!-- Title: G Pages: 1 -->
<svg width="566pt" height="332pt"
 viewBox="0.00 0.00 566.00 332.00" xmlns="http://www.w3.org/2000/svg" xmlns:xlink="http://www.w3.org/1999/xlink">
<g id="graph0" class="graph" transform="scale(1 1) rotate(0) translate(4 328)">
<title>G</title>
<polygon fill="#ffffff" stroke="transparent" points="-4,4 -4,-328 562,-328 562,4 -4,4"/>
<!-- N() -->
<g id="node1" class="node">
<title>N()</title>
<ellipse fill="none" stroke="black" cx="279" cy="-306" rx="27" ry="18"/>
<text text-anchor="middle" x="279" y="-302.3" font-family="Times,serif" font-size="14.00">+</text>
</g>
<!-- N(0) -->
<g id="node2" class="node">
<title>N(0)</title>
<ellipse fill="none" stroke="black" cx="207" cy="-234" rx="27" ry="18"/>
<text text-anchor="middle" x="207" y="-230.3" font-family="Times,serif" font-size="14.00">*</text>
</g>
<!-- N()&#45;&gt;N(0) -->
<g id="edge11" class="edge">
<title>N()&#45;&gt;N(0)</title>
<path fill="none" stroke="#000000" d="M264.43,-290.83C254.25,-280.94 240.48,-267.55 228.97,-256.36"/>
<polygon fill="#000000" stroke="#000000" points="231.41,-253.85 221.8,-249.38 226.53,-258.87 231.41,-253.85"/>
</g>
<!-- N(1) -->
<g id="node13" class="node">
<title>N(1)</title>
<ellipse fill="none" stroke="black" cx="351" cy="-234" rx="27" ry="18"/>
<text text-anchor="middle" x="351" y="-230.3" font-family="Times,serif" font-size="14.00">&#45;</text>
</g>
<!-- N()&#45;&gt;N(1) -->
<g id="edge18" class="edge">
<title>N()&#45;&gt;N(1)</title>
<path fill="none" stroke="#000000" d="M293.57,-290.83C303.75,-280.94 317.52,-267.55 329.03,-256.36"/>
<polygon fill="#000000" stroke="#000000" points="331.47,-258.87 336.2,-249.38 326.59,-253.85 331.47,-258.87"/>
</g>
<!-- N(00) -->
<g id="node3" class="node">
<title>N(00)</title>
<ellipse fill="none" stroke="black" cx="99" cy="-162" rx="27" ry="18"/>
<text text-anchor="middle" x="99" y="-158.3" font-family="Times,serif" font-size="14.00">6</text>
</g>
<!-- N(0)&#45;&gt;N(00) -->
<g id="edge3" class="edge">
<title>N(0)&#45;&gt;N(00)</title>
<path fill="none" stroke="#000000" d="M188.19,-220.81C171,-209.67 145.38,-193.06 126.01,-180.5"/>
<polygon fill="#000000" stroke="#000000" points="127.89,-177.56 117.6,-175.05 124.08,-183.43 127.89,-177.56"/>
</g>
<!-- N(01) -->
<g id="node6" class="node">
<title>N(01)</title>
<ellipse fill="none" stroke="black" cx="207" cy="-162" rx="27" ry="18"/>
<text text-anchor="middle" x="207" y="-158.3" font-family="Times,serif" font-size="14.00">+</text>
</g>
<!-- N(0)&#45;&gt;N(01) -->
<g id="edge10" class="edge">
<title>N(0)&#45;&gt;N(01)</title>
<path fill="none" stroke="#000000" d="M207,-215.7C207,-207.98 207,-198.71 207,-190.11"/>
<polygon fill="#000000" stroke="#000000" points="210.5,-190.1 207,-180.1 203.5,-190.1 210.5,-190.1"/>
</g>
<!-- N(000) -->
<g id="node4" class="node">
<title>N(000)</title>
<ellipse fill="none" stroke="#ffffff" cx="27" cy="-90" rx="27" ry="18"/>
</g>
<!-- N(00)&#45;&gt;N(000) -->
<g id="edge1" class="edge">
<title>N(00)&#45;&gt;N(000)</title>
<path fill="none" stroke="#ffffff" d="M84.43,-146.83C74.25,-136.94 60.48,-123.55 48.97,-112.36"/>
<polygon fill="#ffffff" stroke="#ffffff" points="51.41,-109.85 41.8,-105.38 46.53,-114.87 51.41,-109.85"/>
</g>
<!-- N(001) -->
<g id="node5" class="node">
<title>N(001)</title>
<ellipse fill="none" stroke="#ffffff" cx="99" cy="-90" rx="27" ry="18"/>
</g>
<!-- N(00)&#45;&gt;N(001) -->
<g id="edge2" class="edge">
<title>N(00)&#45;&gt;N(001)</title>
<path fill="none" stroke="#ffffff" d="M99,-143.7C99,-135.98 99,-126.71 99,-118.11"/>
<polygon fill="#ffffff" stroke="#ffffff" points="102.5,-118.1 99,-108.1 95.5,-118.1 102.5,-118.1"/>
</g>
<!-- N(010) -->
<g id="node7" class="node">
<title>N(010)</title>
<ellipse fill="none" stroke="black" cx="171" cy="-90" rx="27" ry="18"/>
<text text-anchor="middle" x="171" y="-86.3" font-family="Times,serif" font-size="14.00">9</text>
</g>
<!-- N(01)&#45;&gt;N(010) -->
<g id="edge6" class="edge">
<title>N(01)&#45;&gt;N(010)</title>
<path fill="none" stroke="#000000" d="M198.65,-144.76C194.29,-136.28 188.85,-125.71 183.96,-116.2"/>
<polygon fill="#000000" stroke="#000000" points="186.99,-114.44 179.3,-107.15 180.77,-117.64 186.99,-114.44"/>
</g>
<!-- N(011) -->
<g id="node10" class="node">
<title>N(011)</title>
<ellipse fill="none" stroke="black" cx="243" cy="-90" rx="27" ry="18"/>
<text text-anchor="middle" x="243" y="-86.3" font-family="Times,serif" font-size="14.00">7</text>
</g>
<!-- N(01)&#45;&gt;N(011) -->
<g id="edge9" class="edge">
<title>N(01)&#45;&gt;N(011)</title>
<path fill="none" stroke="#000000" d="M215.35,-144.76C219.71,-136.28 225.15,-125.71 230.04,-116.2"/>
<polygon fill="#000000" stroke="#000000" points="233.23,-117.64 234.7,-107.15 227.01,-114.44 233.23,-117.64"/>
</g>
<!-- N(0100) -->
<g id="node8" class="node">
<title>N(0100)</title>
<ellipse fill="none" stroke="#ffffff" cx="99" cy="-18" rx="27" ry="18"/>
</g>
<!-- N(010)&#45;&gt;N(0100) -->
<g id="edge4" class="edge">
<title>N(010)&#45;&gt;N(0100)</title>
<path fill="none" stroke="#ffffff" d="M156.43,-74.83C146.25,-64.94 132.48,-51.55 120.97,-40.36"/>
<polygon fill="#ffffff" stroke="#ffffff" points="123.41,-37.85 113.8,-33.38 118.53,-42.87 123.41,-37.85"/>
</g>
<!-- N(0101) -->
<g id="node9" class="node">
<title>N(0101)</title>
<ellipse fill="none" stroke="#ffffff" cx="171" cy="-18" rx="27" ry="18"/>
</g>
<!-- N(010)&#45;&gt;N(0101) -->
<g id="edge5" class="edge">
<title>N(010)&#45;&gt;N(0101)</title>
<path fill="none" stroke="#ffffff" d="M171,-71.7C171,-63.98 171,-54.71 171,-46.11"/>
<polygon fill="#ffffff" stroke="#ffffff" points="174.5,-46.1 171,-36.1 167.5,-46.1 174.5,-46.1"/>
</g>
<!-- N(0110) -->
<g id="node11" class="node">
<title>N(0110)</title>
<ellipse fill="none" stroke="#ffffff" cx="243" cy="-18" rx="27" ry="18"/>
</g>
<!-- N(011)&#45;&gt;N(0110) -->
<g id="edge7" class="edge">
<title>N(011)&#45;&gt;N(0110)</title>
<path fill="none" stroke="#ffffff" d="M243,-71.7C243,-63.98 243,-54.71 243,-46.11"/>
<polygon fill="#ffffff" stroke="#ffffff" points="246.5,-46.1 243,-36.1 239.5,-46.1 246.5,-46.1"/>
</g>
<!-- N(0111) -->
<g id="node12" class="node">
<title>N(0111)</title>
<ellipse fill="none" stroke="#ffffff" cx="315" cy="-18" rx="27" ry="18"/>
</g>
<!-- N(011)&#45;&gt;N(0111) -->
<g id="edge8" class="edge">
<title>N(011)&#45;&gt;N(0111)</title>
<path fill="none" stroke="#ffffff" d="M257.57,-74.83C267.75,-64.94 281.52,-51.55 293.03,-40.36"/>
<polygon fill="#ffffff" stroke="#ffffff" points="295.47,-42.87 300.2,-33.38 290.59,-37.85 295.47,-42.87"/>
</g>
<!-- N(10) -->
<g id="node14" class="node">
<title>N(10)</title>
<ellipse fill="none" stroke="black" cx="351" cy="-162" rx="27" ry="18"/>
<text text-anchor="middle" x="351" y="-158.3" font-family="Times,serif" font-size="14.00">7</text>
</g>
<!-- N(1)&#45;&gt;N(10) -->
<g id="edge14" class="edge">
<title>N(1)&#45;&gt;N(10)</title>
<path fill="none" stroke="#000000" d="M351,-215.7C351,-207.98 351,-198.71 351,-190.11"/>
<polygon fill="#000000" stroke="#000000" points="354.5,-190.1 351,-180.1 347.5,-190.1 354.5,-190.1"/>
</g>
<!-- N(11) -->
<g id="node17" class="node">
<title>N(11)</title>
<ellipse fill="none" stroke="black" cx="459" cy="-162" rx="27" ry="18"/>
<text text-anchor="middle" x="459" y="-158.3" font-family="Times,serif" font-size="14.00">14</text>
</g>
<!-- N(1)&#45;&gt;N(11) -->
<g id="edge17" class="edge">
<title>N(1)&#45;&gt;N(11)</title>
<path fill="none" stroke="#000000" d="M369.81,-220.81C387,-209.67 412.62,-193.06 431.99,-180.5"/>
<polygon fill="#000000" stroke="#000000" points="433.92,-183.43 440.4,-175.05 430.11,-177.56 433.92,-183.43"/>
</g>
<!-- N(100) -->
<g id="node15" class="node">
<title>N(100)</title>
<ellipse fill="none" stroke="#ffffff" cx="315" cy="-90" rx="27" ry="18"/>
</g>
<!-- N(10)&#45;&gt;N(100) -->
<g id="edge12" class="edge">
<title>N(10)&#45;&gt;N(100)</title>
<path fill="none" stroke="#ffffff" d="M342.65,-144.76C338.29,-136.28 332.85,-125.71 327.96,-116.2"/>
<polygon fill="#ffffff" stroke="#ffffff" points="330.99,-114.44 323.3,-107.15 324.77,-117.64 330.99,-114.44"/>
</g>
<!-- N(101) -->
<g id="node16" class="node">
<title>N(101)</title>
<ellipse fill="none" stroke="#ffffff" cx="387" cy="-90" rx="27" ry="18"/>
</g>
<!-- N(10)&#45;&gt;N(101) -->
<g id="edge13" class="edge">
<title>N(10)&#45;&gt;N(101)</title>
<path fill="none" stroke="#ffffff" d="M359.35,-144.76C363.71,-136.28 369.15,-125.71 374.04,-116.2"/>
<polygon fill="#ffffff" stroke="#ffffff" points="377.23,-117.64 378.7,-107.15 371.01,-114.44 377.23,-117.64"/>
</g>
<!-- N(110) -->
<g id="node18" class="node">
<title>N(110)</title>
<ellipse fill="none" stroke="#ffffff" cx="459" cy="-90" rx="27" ry="18"/>
</g>
<!-- N(11)&#45;&gt;N(110) -->
<g id="edge15" class="edge">
<title>N(11)&#45;&gt;N(110)</title>
<path fill="none" stroke="#ffffff" d="M459,-143.7C459,-135.98 459,-126.71 459,-118.11"/>
<polygon fill="#ffffff" stroke="#ffffff" points="462.5,-118.1 459,-108.1 455.5,-118.1 462.5,-118.1"/>
</g>
<!-- N(111) -->
<g id="node19" class="node">
<title>N(111)</title>
<ellipse fill="none" stroke="#ffffff" cx="531" cy="-90" rx="27" ry="18"/>
</g>
<!-- N(11)&#45;&gt;N(111) -->
<g id="edge16" class="edge">
<title>N(11)&#45;&gt;N(111)</title>
<path fill="none" stroke="#ffffff" d="M473.57,-146.83C483.75,-136.94 497.52,-123.55 509.03,-112.36"/>
<polygon fill="#ffffff" stroke="#ffffff" points="511.47,-114.87 516.2,-105.38 506.59,-109.85 511.47,-114.87"/>
</g>
</g>
</svg>
