P1
# Fichier PBM dans sa version ASCII
70 103
0101010101010010101001010110101010100101001001101010010101001001010100
1000010100101001001010010001010101011010100100010101010001010100101010
0101001010010010101001001101011111111111111010100101001010001010010101
1010101010010100001000100111111111111111111111010101001000100000000100
0010010100100000100101011111111111111111111111101001001010010100010010
0100000010001000100001111110111111111111011111111101001001000010100101
0010010001000000000111111111111111111111111111111111100000000100010000
0000000100010110111111111111111111111111111111111111110010100000010101
0100000010000000011111111011111111111111111111111111111000000010010100
0001100000001010111111111111111111111111111111111111111010100000000010
1000001001000001111111111011111111111111111111111111111100010000010010
0001000000000011111111111110111111111111111111111111111111000000000001
1000000000000001111111010010101111111111111111111111111111010000010100
0000100001000111111110100001010010111111111111111111111111100000000001
0000000000000111110000000000000000011111111111111111111111110010001000
0100000000001111010000000000000000000111111111111111111111110000000000
0000000000111110000000000000000000001011111111111111111111111001000000
0000000000011110000000000000000000000101111111111111111111111100000100
0000000000111100000000000000000000000011111111111111111111111110000000
0000000000111110000000000000000000000000111111111111111111111110100100
0000000001111000000000000000000000000101101111111111111111111110000000
0000000001111100000000000000000000000000111111111111111111111110100100
0000000101111000000000000000000000000101010111111111111111111111000010
0000000101111100000000000000000000000001011111111111111111111111000100
0000000011111000000000000000000000000101010111111111111111111111110010
0000000011111000000000000000000000000000101011111111111111111111110101
0000001111111000000000000000000000000000001001111111111111111111100110
0000001111110000000000000000000000000000100100111111111111111111110101
0000101111111000000000000000000000000000000010111111111111111111110110
0000001111110000000000000000000000000000001010111111111111111111111011
0000111111111000000000000000000000000000000011011111111111111111111011
0000011111110000000000000000000000000000010000111111111111111111111110
0000101111111000000000000000000100000010010111111111111111111111101111
0001011111110000000000000000010101010101010101111111111111111111111111
0001011111111100010100000001010111101111111111111111111111111111111111
0000111111111111100110000000111100011011111111111111111111111111111011
0101111111111011010111000001111010111111111110111111111111111111111111
0001011111111111111111000001011100111111111101011111111111111111110111
0100111111110110010101000001100000010100000001111111111111111111111111
0100111111110000000001000001110000000011000000011111111111111111111111
0001011111110001011100000001010000010100000001011111111111111111111111
1101111111110000000000000001010000000100000000111111111111111111111111
0011011111110000000000000010100000000000000001011111111111111111111111
1011111111110000000000000000100000000000000000111111111111111111111111
1110111111110000000000000000100000000000000011111111111111111111111111
0111111111110000000000000000000000000000000000111111111111111111111111
1111111111110000000000000000100000000000000111111111111111111111111010
1111111111110000000000000000100000000000010101111111111111111111111101
1111111111111000000000000000100000000000000101111111111111111111111111
1111111111111000000000000010010000000000011011111111111111111111111111
1111111111111100000000000001010000000001001011111111111111111111111111
1111111111111100000000000011010000000000111111111111111111111111111111
1111111111111100000000001011110000000000010101111111111111111111111111
1111111111111110000000011111111000000011011111111111111111111111111111
1111111111111110000000001111110000000001010111111111111111111111111111
1111111111111110100000001011010000000010111111111111111111111111111111
1111111111111110100000000101101110101001001111111111111111111111111111
1111111111111110100101100011111110100010110111111111111111111111111111
1111111111111110010100010101010100000101001111111111111111111111111111
1111111111111111000000000001010101000000110111111111111111111111111111
1111111111111110100000000101010100101011111111111111111111111111111111
1111111111111111110000000101110110001010101111111111111111111111111111
1111111111111111110000001010010101011011111111111111111111111111111111
1111111111111111111100000001000010100101101111111111111111111111111111
1111111111111111111000000000010101011111111111111111111111111111111111
1111111111111111111110000000000001010101111111111111111111111111111111
1111111111111111111110000000010101111111111111111111111111111111111111
1111111111111111111111000000001111111111111111111111111111111111111111
1011111111111111111111111101111011111111111111111111111111111111111111
1111111111111111111111111111011111111111111111111111111111111111111111
1011111111111111111111111111111111111111111111111111111111111111111111
1111111111111111111111111111111111111111111111111111111111111111111111
1011111111111111111111111111111111111111111111111111111111111111111111
1111111111111111111111111111111111111111111111111111111111111111111111
1011111111111111111111111111111111111111111111111111111111111111111111
1110111111111111111111111111111111111111111111111111111111111111111111
0111111111111111111111111110001011111111111111111111111111111111111111
0111111111111111111111111111010110111111101110101111111111111111111111
1111111111111111111111111110001010110101110101101011111111111111111111
0101111111111111111111111111100101010110110101011011111111111111111111
1111111111111111111111111111001001011010101010101101111111111111111111
0111111111111111111111111111101001010101010010001011111111111111111111
1111111111111111111111111101000000101010101001010101111111111111111111
1111111111111111111111111101010100000010100000000010111111111111111111
1111111111111111111111111010000000001000001001001001111111111111111111
1111111111111111111111110000000010000010000000000000111111111111111111
1111111111111111111110010000000000000000000000000100111111111111111111
1111111111111111111010000000000000000000000000000000011111111111111111
1111111111111111111010000000000000000000000000000001011111111111111111
1111111111111111000000000000000000000000000000000000101111111111111111
1111111111111111010000000000000000000000000000000001011111111111111111
1111111111111111000000000000000000000000000000000000111111111111111111
1111111111111110000000000000000000000000000000000000101111111111111111
1111111111111110000000000000000000000000000000000001011111111111111111
1111111111111110000000000000000000000000000000000000101010111111111111
1111111111111100000000000000000000000000000000000010101111111111111111
1111111111111000000000000000000000000000000000000001011111111111111111
1111111111111100000000000000000000000000000000000000101111101111111111
1111111110110000000000000000000000000000000000000010111011111111111111
1111111111010000000000000000000000000000000000000000101111111111111111
1111111110101000000000000000000000000000000000000011011011111111111110
1111111110100000000000000000000000000000000000000001010111111111110110
1111111001000000000000000000000000000000000000000001111111111111011011
